<svg width="32" height="32" viewBox="0 0 32 32" fill="none" xmlns="http://www.w3.org/2000/svg">
<path id="Vector" d="M29.1119 27.1123V28.2739C29.1119 29.7792 27.7861 31 26.1513 31H3.96061C2.32579 31 1 29.7792 1 28.2739V13.838C1 12.3327 2.32579 11.112 3.96061 11.112H26.1513C27.7861 11.112 29.1119 12.3327 29.1119 13.838V14.9996M12.857 27.8912H4.91315C4.54959 27.8912 4.25389 27.6189 4.25389 27.2842V21.7428M9.14139 8.98178L24.2377 5.68886L24.9321 8.99628M4.42597 8.71843L18.4547 1L19.7817 3.57318M24.6243 14.1951H17.5724M28.6102 24.9063H24.8219C22.512 24.9063 20.6397 23.1823 20.6397 21.0554C20.6397 18.9286 22.512 17.2046 24.8219 17.2046H28.6102C29.9299 17.2046 31 18.1899 31 19.4051V22.7069C31 23.9221 29.9299 24.9074 28.6102 24.9074V24.9063ZM26.6445 21.0554C26.6445 21.8769 25.9213 22.5429 25.0291 22.5429C24.1369 22.5429 23.4137 21.8769 23.4137 21.0554C23.4137 20.2339 24.1369 19.568 25.0291 19.568C25.9213 19.568 26.6445 20.2339 26.6445 21.0554Z" stroke="#00661F" stroke-width="2" stroke-linecap="round" stroke-linejoin="round"/>
</svg>
