<svg width="32" height="31" viewBox="0 0 32 31" fill="none" xmlns="http://www.w3.org/2000/svg">
<path id="Vector" d="M15.648 2.90904V3.60453M14.0873 7.64682C14.4269 8.25523 15.0766 8.48162 15.5436 8.48162C16.0105 8.48162 17.0706 8.29768 17.0706 7.22343C17.0706 6.14919 15.7025 6.05014 15.7025 6.05014L15.5784 6.036C15.5784 6.036 14.1765 5.93695 14.1765 4.86271C14.1765 3.78846 15.2366 3.60453 15.7036 3.60453C16.079 3.6067 16.5797 3.73404 16.9193 4.34246M18.627 9.42852C19.6762 8.55454 20.3445 7.23758 20.3445 5.76499C20.3445 3.13325 18.2112 1 15.5795 1C12.9477 1 10.8145 3.13325 10.8145 5.76499C10.8145 7.07215 11.3413 8.25632 12.1935 9.11724M21.5831 9.86279C24.6948 11.4856 26.7301 14.1761 26.7301 17.2203C26.7301 20.0491 24.9734 22.5709 22.2285 24.2154L23.3582 29.3929H19.2093L18.972 28.0955M7.70059 24.5311C5.62829 23.4296 4.04359 21.8504 3.23709 20.0099C3.13369 19.7737 2.90187 19.6213 2.64392 19.6213H1.65566C1.41839 19.6213 1.21595 19.4483 1.17894 19.2132L1.00589 15.3385C0.960173 15.0457 1.18656 14.7823 1.4826 14.7823H2.66133C2.91602 14.7823 3.14784 14.6332 3.25124 14.3992C3.76496 13.2422 4.5867 12.1898 5.64244 11.2951C5.32463 10.1414 4.17093 8.54039 3.46239 7.94395C5.84924 6.79243 7.61461 7.09936 8.76395 7.93851M18.5791 25.7152C17.3579 26.0254 16.0486 26.1941 14.687 26.1941C13.5344 26.1941 12.4188 26.0733 11.363 25.848L10.7546 29.7706H6.60567L7.10633 27.1976M11.1181 11.6652C14.7686 10.4658 19.8906 11.2233 22.4951 14.2468M28.6119 14.3818C29.7928 14.2512 30.8562 15.1023 30.9868 16.2832C31.1174 17.4641 30.2663 18.5275 29.0853 18.6581C27.9044 18.7887 26.8433 17.906 26.7126 16.7262M6.76784 14.7823H7.6723" stroke="#00661F" stroke-width="2" stroke-linecap="round" stroke-linejoin="round"/>
</svg>
