<svg width="32" height="31" viewBox="0 0 32 31" fill="none" xmlns="http://www.w3.org/2000/svg">
<g clip-path="url(#clip0_493_1478)">
<path d="M8.72732 8.95437C12.7439 8.95437 16 7.32631 16 5.318C16 3.3097 12.7439 1.68164 8.72732 1.68164C4.7107 1.68164 1.45459 3.3097 1.45459 5.318C1.45459 7.32631 4.7107 8.95437 8.72732 8.95437Z" stroke="#707974" stroke-width="1.5" stroke-linecap="round" stroke-linejoin="round"/>
<path d="M1.45459 5.31836C1.45459 5.31836 1.45459 8.40098 1.45459 10.4093C1.45459 12.4176 4.7107 14.0456 8.72732 14.0456C12.7439 14.0456 16 12.4176 16 10.4093C16 9.21974 16 5.31836 16 5.31836" stroke="#707974" stroke-width="1.5" stroke-linecap="round" stroke-linejoin="round"/>
<path d="M1.45459 10.4082C1.45459 10.4082 1.45459 13.4908 1.45459 15.4991C1.45459 17.5074 4.7107 19.1355 8.72732 19.1355C12.7439 19.1355 16 17.5074 16 15.4991C16 14.3096 16 10.4082 16 10.4082" stroke="#707974" stroke-width="1.5" stroke-linecap="round" stroke-linejoin="round"/>
<path d="M1.45459 15.5C1.45459 15.5 1.45459 18.5826 1.45459 20.5909C1.45459 22.5992 4.7107 24.2273 8.72732 24.2273C12.7439 24.2273 16 22.5992 16 20.5909C16 19.4014 16 15.5 16 15.5" stroke="#707974" stroke-width="1.5" stroke-linecap="round" stroke-linejoin="round"/>
<path d="M1.45459 20.5898C1.45459 20.5898 1.45459 23.6725 1.45459 25.6808C1.45459 27.689 4.7107 29.3171 8.72732 29.3171C12.7439 29.3171 16 27.689 16 25.6808C16 24.4912 16 20.5898 16 20.5898" stroke="#707974" stroke-width="1.5" stroke-linecap="round" stroke-linejoin="round"/>
<path d="M23.2727 19.136C27.2893 19.136 30.5455 17.508 30.5455 15.4996C30.5455 13.4913 27.2893 11.8633 23.2727 11.8633C19.2561 11.8633 16 13.4913 16 15.4996C16 17.508 19.2561 19.136 23.2727 19.136Z" stroke="#707974" stroke-width="1.5" stroke-linecap="round" stroke-linejoin="round"/>
<path d="M16 15.5C16 15.5 16 18.5826 16 20.5909C16 22.5992 19.2561 24.2273 23.2727 24.2273C27.2893 24.2273 30.5455 22.5992 30.5455 20.5909C30.5455 19.4014 30.5455 15.5 30.5455 15.5" stroke="#707974" stroke-width="1.5" stroke-linecap="round" stroke-linejoin="round"/>
<path d="M16 20.5898C16 20.5898 16 23.6725 16 25.6808C16 27.689 19.2561 29.3171 23.2727 29.3171C27.2893 29.3171 30.5455 27.689 30.5455 25.6808C30.5455 24.4912 30.5455 20.5898 30.5455 20.5898" stroke="#707974" stroke-width="1.5" stroke-linecap="round" stroke-linejoin="round"/>
</g>
<defs>
<clipPath id="clip0_493_1478">
<rect width="32" height="30.5455" fill="white" transform="translate(0 0.226562)"/>
</clipPath>
</defs>
</svg>
