<svg width="32" height="38" viewBox="0 0 32 38" fill="none" xmlns="http://www.w3.org/2000/svg">
<path id="Vector" d="M6.90704 33.7958V24.6973C6.90704 23.6653 7.74398 22.8284 8.77598 22.8284H23.224C24.256 22.8284 25.093 23.6653 25.093 24.6973V33.7958M1 36.8489H31M20.3909 17.1856L26.2356 19.879C26.735 20.1086 27.1238 20.5264 27.3188 21.0397L30.1935 28.6344C30.4287 29.2542 30.3553 29.95 29.9971 30.5075L27.8846 33.7958M11.6078 17.1856L5.76298 19.879C5.26358 20.1086 4.87485 20.5264 4.67979 21.0397L1.80513 28.6344C1.56995 29.2542 1.64327 29.95 2.00157 30.5075L4.11399 33.7958M21.6802 7.21138C21.6802 3.7806 19.1375 1 16 1C12.8625 1 10.3198 3.7806 10.3198 7.21138C10.3198 10.6422 12.8625 15.2212 16 15.2212C19.1375 15.2212 21.6802 10.6422 21.6802 7.21138Z" stroke="#00661F" stroke-width="2" stroke-linecap="round" stroke-linejoin="round"/>
</svg>
