<svg width="391" height="50" viewBox="0 0 391 50" fill="none" xmlns="http://www.w3.org/2000/svg">
<rect width="393" height="50" fill="#FDFDFE"/>
<path d="M28.6308 39.5C36.7068 39.5 43.2617 33.0125 43.2617 25C43.2617 16.9875 36.7068 10.5 28.6308 10.5C20.5548 10.5 14 16.9875 14 25C14 33.0125 20.5548 39.5 28.6308 39.5Z" fill="white" stroke="#0141EB"/>
<path d="M34.5185 20.0007H32.8362C32.8362 17.6673 30.9858 15.834 28.6306 15.834C26.2755 15.834 24.425 17.6673 24.425 20.0007H22.7428C21.8176 20.0007 21.0605 20.7507 21.0605 21.6673V31.6673C21.0605 32.584 21.8176 33.334 22.7428 33.334H34.5185C35.4437 33.334 36.2007 32.584 36.2007 31.6673V21.6673C36.2007 20.7507 35.4437 20.0007 34.5185 20.0007ZM28.6306 17.5007C30.0605 17.5007 31.154 18.584 31.154 20.0007H26.1073C26.1073 18.584 27.2007 17.5007 28.6306 17.5007ZM34.5185 31.6673H22.7428V21.6673H34.5185V31.6673ZM28.6306 25.0007C27.2007 25.0007 26.1073 23.9173 26.1073 22.5007H24.425C24.425 24.834 26.2755 26.6673 28.6306 26.6673C30.9858 26.6673 32.8362 24.834 32.8362 22.5007H31.154C31.154 23.9173 30.0605 25.0007 28.6306 25.0007Z" fill="#0141EB"/>
<path d="M57.52 12.558V15.414H60.88V16.716H57.52V19.698H61.3V21H55.924V11.256H61.3V12.558H57.52ZM64.8618 10.64V21H63.2658V10.64H64.8618ZM74.0272 16.954C74.0272 17.2433 74.0086 17.5047 73.9712 17.738H68.0772C68.1239 18.354 68.3526 18.8487 68.7632 19.222C69.1739 19.5953 69.6779 19.782 70.2752 19.782C71.1339 19.782 71.7406 19.4227 72.0952 18.704H73.8172C73.5839 19.4133 73.1592 19.9967 72.5432 20.454C71.9366 20.902 71.1806 21.126 70.2752 21.126C69.5379 21.126 68.8752 20.9627 68.2872 20.636C67.7086 20.3 67.2512 19.8333 66.9152 19.236C66.5886 18.6293 66.4252 17.9293 66.4252 17.136C66.4252 16.3427 66.5839 15.6473 66.9012 15.05C67.2279 14.4433 67.6806 13.9767 68.2592 13.65C68.8472 13.3233 69.5192 13.16 70.2752 13.16C71.0032 13.16 71.6519 13.3187 72.2212 13.636C72.7906 13.9533 73.2339 14.4013 73.5512 14.98C73.8686 15.5493 74.0272 16.2073 74.0272 16.954ZM72.3612 16.45C72.3519 15.862 72.1419 15.3907 71.7312 15.036C71.3206 14.6813 70.8119 14.504 70.2052 14.504C69.6546 14.504 69.1832 14.6813 68.7912 15.036C68.3992 15.3813 68.1659 15.8527 68.0912 16.45H72.3612ZM75.0659 17.136C75.0659 16.3427 75.2245 15.6473 75.5419 15.05C75.8685 14.4433 76.3165 13.9767 76.8859 13.65C77.4552 13.3233 78.1085 13.16 78.8459 13.16C79.7792 13.16 80.5492 13.384 81.1559 13.832C81.7719 14.2707 82.1872 14.9007 82.4019 15.722H80.6799C80.5399 15.3393 80.3159 15.0407 80.0079 14.826C79.6999 14.6113 79.3125 14.504 78.8459 14.504C78.1925 14.504 77.6699 14.7373 77.2779 15.204C76.8952 15.6613 76.7039 16.3053 76.7039 17.136C76.7039 17.9667 76.8952 18.6153 77.2779 19.082C77.6699 19.5487 78.1925 19.782 78.8459 19.782C79.7699 19.782 80.3812 19.376 80.6799 18.564H82.4019C82.1779 19.348 81.7579 19.9733 81.1419 20.44C80.5259 20.8973 79.7605 21.126 78.8459 21.126C78.1085 21.126 77.4552 20.9627 76.8859 20.636C76.3165 20.3 75.8685 19.8333 75.5419 19.236C75.2245 18.6293 75.0659 17.9293 75.0659 17.136ZM85.8544 14.588V18.858C85.8544 19.1473 85.9197 19.3573 86.0504 19.488C86.1904 19.6093 86.4237 19.67 86.7504 19.67H87.7304V21H86.4704C85.7517 21 85.201 20.832 84.8184 20.496C84.4357 20.16 84.2444 19.614 84.2444 18.858V14.588H83.3344V13.286H84.2444V11.368H85.8544V13.286H87.7304V14.588H85.8544ZM90.7974 14.406C91.0307 14.014 91.3387 13.7107 91.7214 13.496C92.1134 13.272 92.5754 13.16 93.1074 13.16V14.812H92.7014C92.076 14.812 91.6 14.9707 91.2734 15.288C90.956 15.6053 90.7974 16.156 90.7974 16.94V21H89.2014V13.286H90.7974V14.406ZM97.9204 21.126C97.1924 21.126 96.5344 20.9627 95.9464 20.636C95.3584 20.3 94.8964 19.8333 94.5604 19.236C94.2244 18.6293 94.0564 17.9293 94.0564 17.136C94.0564 16.352 94.2291 15.6567 94.5744 15.05C94.9197 14.4433 95.3911 13.9767 95.9884 13.65C96.5857 13.3233 97.2531 13.16 97.9904 13.16C98.7277 13.16 99.3951 13.3233 99.9924 13.65C100.59 13.9767 101.061 14.4433 101.406 15.05C101.752 15.6567 101.924 16.352 101.924 17.136C101.924 17.92 101.747 18.6153 101.392 19.222C101.038 19.8287 100.552 20.3 99.9364 20.636C99.3297 20.9627 98.6577 21.126 97.9204 21.126ZM97.9204 19.74C98.3311 19.74 98.7137 19.642 99.0684 19.446C99.4324 19.25 99.7264 18.956 99.9504 18.564C100.174 18.172 100.286 17.696 100.286 17.136C100.286 16.576 100.179 16.1047 99.9644 15.722C99.7497 15.33 99.4651 15.036 99.1104 14.84C98.7557 14.644 98.3731 14.546 97.9624 14.546C97.5517 14.546 97.1691 14.644 96.8144 14.84C96.4691 15.036 96.1937 15.33 95.9884 15.722C95.7831 16.1047 95.6804 16.576 95.6804 17.136C95.6804 17.9667 95.8904 18.6107 96.3104 19.068C96.7397 19.516 97.2764 19.74 97.9204 19.74ZM107.394 13.16C108.001 13.16 108.542 13.286 109.018 13.538C109.503 13.79 109.881 14.1633 110.152 14.658C110.423 15.1527 110.558 15.75 110.558 16.45V21H108.976V16.688C108.976 15.9973 108.803 15.47 108.458 15.106C108.113 14.7327 107.641 14.546 107.044 14.546C106.447 14.546 105.971 14.7327 105.616 15.106C105.271 15.47 105.098 15.9973 105.098 16.688V21H103.502V13.286H105.098V14.168C105.359 13.8507 105.691 13.6033 106.092 13.426C106.503 13.2487 106.937 13.16 107.394 13.16ZM113.406 12.264C113.117 12.264 112.874 12.166 112.678 11.97C112.482 11.774 112.384 11.5313 112.384 11.242C112.384 10.9527 112.482 10.71 112.678 10.514C112.874 10.318 113.117 10.22 113.406 10.22C113.686 10.22 113.924 10.318 114.12 10.514C114.316 10.71 114.414 10.9527 114.414 11.242C114.414 11.5313 114.316 11.774 114.12 11.97C113.924 12.166 113.686 12.264 113.406 12.264ZM114.19 13.286V21H112.594V13.286H114.19ZM115.753 17.136C115.753 16.3427 115.912 15.6473 116.229 15.05C116.556 14.4433 117.004 13.9767 117.573 13.65C118.143 13.3233 118.796 13.16 119.533 13.16C120.467 13.16 121.237 13.384 121.843 13.832C122.459 14.2707 122.875 14.9007 123.089 15.722H121.367C121.227 15.3393 121.003 15.0407 120.695 14.826C120.387 14.6113 120 14.504 119.533 14.504C118.88 14.504 118.357 14.7373 117.965 15.204C117.583 15.6613 117.391 16.3053 117.391 17.136C117.391 17.9667 117.583 18.6153 117.965 19.082C118.357 19.5487 118.88 19.782 119.533 19.782C120.457 19.782 121.069 19.376 121.367 18.564H123.089C122.865 19.348 122.445 19.9733 121.829 20.44C121.213 20.8973 120.448 21.126 119.533 21.126C118.796 21.126 118.143 20.9627 117.573 20.636C117.004 20.3 116.556 19.8333 116.229 19.236C115.912 18.6293 115.753 17.9293 115.753 17.136ZM127.48 21.126C126.873 21.126 126.327 21.0187 125.842 20.804C125.366 20.58 124.988 20.2813 124.708 19.908C124.428 19.5253 124.279 19.1007 124.26 18.634H125.912C125.94 18.9607 126.094 19.236 126.374 19.46C126.663 19.6747 127.023 19.782 127.452 19.782C127.9 19.782 128.245 19.698 128.488 19.53C128.74 19.3527 128.866 19.1287 128.866 18.858C128.866 18.5687 128.726 18.354 128.446 18.214C128.175 18.074 127.741 17.92 127.144 17.752C126.565 17.5933 126.094 17.4393 125.73 17.29C125.366 17.1407 125.049 16.912 124.778 16.604C124.517 16.296 124.386 15.89 124.386 15.386C124.386 14.9753 124.507 14.602 124.75 14.266C124.993 13.9207 125.338 13.65 125.786 13.454C126.243 13.258 126.766 13.16 127.354 13.16C128.231 13.16 128.936 13.384 129.468 13.832C130.009 14.2707 130.299 14.8727 130.336 15.638H128.74C128.712 15.2927 128.572 15.0173 128.32 14.812C128.068 14.6067 127.727 14.504 127.298 14.504C126.878 14.504 126.556 14.5833 126.332 14.742C126.108 14.9007 125.996 15.1107 125.996 15.372C125.996 15.5773 126.071 15.75 126.22 15.89C126.369 16.03 126.551 16.142 126.766 16.226C126.981 16.3007 127.298 16.3987 127.718 16.52C128.278 16.6693 128.735 16.8233 129.09 16.982C129.454 17.1313 129.767 17.3553 130.028 17.654C130.289 17.9527 130.425 18.3493 130.434 18.844C130.434 19.2827 130.313 19.6747 130.07 20.02C129.827 20.3653 129.482 20.636 129.034 20.832C128.595 21.028 128.077 21.126 127.48 21.126Z" fill="black"/>
<path d="M55.414 30.5V29.252H57.91V38H56.53V30.5H55.414ZM64.4933 31.28C64.4053 30.912 64.2453 30.636 64.0133 30.452C63.7813 30.268 63.4573 30.176 63.0413 30.176C62.4093 30.176 61.9373 30.42 61.6253 30.908C61.3133 31.388 61.1493 32.188 61.1333 33.308C61.3413 32.956 61.6453 32.684 62.0453 32.492C62.4453 32.3 62.8773 32.204 63.3413 32.204C63.8693 32.204 64.3333 32.32 64.7333 32.552C65.1413 32.776 65.4573 33.104 65.6813 33.536C65.9133 33.968 66.0293 34.484 66.0293 35.084C66.0293 35.644 65.9173 36.144 65.6933 36.584C65.4773 37.024 65.1533 37.372 64.7213 37.628C64.2893 37.876 63.7693 38 63.1613 38C62.3373 38 61.6893 37.82 61.2173 37.46C60.7533 37.092 60.4253 36.576 60.2333 35.912C60.0493 35.248 59.9573 34.42 59.9573 33.428C59.9573 30.5 60.9893 29.036 63.0533 29.036C63.8533 29.036 64.4813 29.252 64.9373 29.684C65.4013 30.116 65.6733 30.648 65.7533 31.28H64.4933ZM63.0413 33.356C62.5533 33.356 62.1373 33.504 61.7933 33.8C61.4573 34.088 61.2893 34.508 61.2893 35.06C61.2893 35.612 61.4453 36.052 61.7573 36.38C62.0773 36.7 62.5213 36.86 63.0893 36.86C63.5933 36.86 63.9893 36.704 64.2773 36.392C64.5733 36.08 64.7213 35.664 64.7213 35.144C64.7213 34.6 64.5773 34.168 64.2893 33.848C64.0093 33.52 63.5933 33.356 63.0413 33.356ZM72.7446 33.08V34.232H67.8126V33.08H72.7446ZM74.3281 30.5V29.252H76.8241V38H75.4441V30.5H74.3281ZM78.5234 30.5V29.252H81.0194V38H79.6394V30.5H78.5234ZM88.1547 33.08V34.232H83.2227V33.08H88.1547ZM90.6742 36.14C91.4422 35.476 92.0462 34.932 92.4862 34.508C92.9342 34.076 93.3062 33.628 93.6022 33.164C93.8982 32.7 94.0462 32.236 94.0462 31.772C94.0462 31.292 93.9302 30.916 93.6982 30.644C93.4742 30.372 93.1182 30.236 92.6302 30.236C92.1582 30.236 91.7902 30.388 91.5262 30.692C91.2702 30.988 91.1342 31.388 91.1182 31.892H89.7982C89.8222 30.98 90.0942 30.284 90.6142 29.804C91.1422 29.316 91.8102 29.072 92.6182 29.072C93.4902 29.072 94.1702 29.312 94.6582 29.792C95.1542 30.272 95.4022 30.912 95.4022 31.712C95.4022 32.288 95.2542 32.844 94.9582 33.38C94.6702 33.908 94.3222 34.384 93.9142 34.808C93.5142 35.224 93.0022 35.708 92.3782 36.26L91.8382 36.74H95.6422V37.88H89.8102V36.884L90.6742 36.14ZM96.82 31.412C96.868 30.668 97.152 30.088 97.672 29.672C98.2 29.256 98.872 29.048 99.688 29.048C100.248 29.048 100.732 29.148 101.14 29.348C101.548 29.548 101.856 29.82 102.064 30.164C102.272 30.508 102.376 30.896 102.376 31.328C102.376 31.824 102.244 32.248 101.98 32.6C101.716 32.952 101.4 33.188 101.032 33.308V33.356C101.504 33.5 101.872 33.764 102.136 34.148C102.4 34.524 102.532 35.008 102.532 35.6C102.532 36.072 102.424 36.492 102.208 36.86C101.992 37.228 101.672 37.52 101.248 37.736C100.824 37.944 100.316 38.048 99.724 38.048C98.86 38.048 98.148 37.828 97.588 37.388C97.036 36.94 96.74 36.3 96.7 35.468H98.02C98.052 35.892 98.216 36.24 98.512 36.512C98.808 36.776 99.208 36.908 99.712 36.908C100.2 36.908 100.576 36.776 100.84 36.512C101.104 36.24 101.236 35.892 101.236 35.468C101.236 34.908 101.056 34.512 100.696 34.28C100.344 34.04 99.8 33.92 99.064 33.92H98.752V32.792H99.076C99.724 32.784 100.216 32.676 100.552 32.468C100.896 32.26 101.068 31.932 101.068 31.484C101.068 31.1 100.944 30.796 100.696 30.572C100.448 30.34 100.096 30.224 99.64 30.224C99.192 30.224 98.844 30.34 98.596 30.572C98.348 30.796 98.2 31.076 98.152 31.412H96.82Z" fill="black"/>
<path d="M326.435 24.26V25.604H320.681V24.26H326.435ZM335.072 21.166H330.382V23.952C330.578 23.6907 330.867 23.4713 331.25 23.294C331.642 23.1167 332.057 23.028 332.496 23.028C333.28 23.028 333.915 23.196 334.4 23.532C334.895 23.868 335.245 24.2927 335.45 24.806C335.665 25.3193 335.772 25.8607 335.772 26.43C335.772 27.1207 335.637 27.7367 335.366 28.278C335.105 28.81 334.708 29.23 334.176 29.538C333.653 29.846 333.009 30 332.244 30C331.227 30 330.41 29.748 329.794 29.244C329.178 28.74 328.809 28.0727 328.688 27.242H330.242C330.345 27.6807 330.573 28.0307 330.928 28.292C331.283 28.544 331.726 28.67 332.258 28.67C332.921 28.67 333.415 28.4693 333.742 28.068C334.078 27.6667 334.246 27.1347 334.246 26.472C334.246 25.8 334.078 25.2867 333.742 24.932C333.406 24.568 332.911 24.386 332.258 24.386C331.801 24.386 331.413 24.5027 331.096 24.736C330.788 24.96 330.564 25.268 330.424 25.66H328.912V19.766H335.072V21.166ZM337.433 24.764C337.433 23.1493 337.704 21.8893 338.245 20.984C338.796 20.0693 339.739 19.612 341.073 19.612C342.408 19.612 343.346 20.0693 343.887 20.984C344.438 21.8893 344.713 23.1493 344.713 24.764C344.713 26.3973 344.438 27.676 343.887 28.6C343.346 29.5147 342.408 29.972 341.073 29.972C339.739 29.972 338.796 29.5147 338.245 28.6C337.704 27.676 337.433 26.3973 337.433 24.764ZM343.145 24.764C343.145 24.008 343.094 23.3687 342.991 22.846C342.898 22.3233 342.702 21.8987 342.403 21.572C342.105 21.236 341.661 21.068 341.073 21.068C340.485 21.068 340.042 21.236 339.743 21.572C339.445 21.8987 339.244 22.3233 339.141 22.846C339.048 23.3687 339.001 24.008 339.001 24.764C339.001 25.548 339.048 26.206 339.141 26.738C339.235 27.27 339.431 27.6993 339.729 28.026C340.037 28.3527 340.485 28.516 341.073 28.516C341.661 28.516 342.105 28.3527 342.403 28.026C342.711 27.6993 342.912 27.27 343.005 26.738C343.099 26.206 343.145 25.548 343.145 24.764ZM346.402 24.764C346.402 23.1493 346.673 21.8893 347.214 20.984C347.765 20.0693 348.707 19.612 350.042 19.612C351.377 19.612 352.315 20.0693 352.856 20.984C353.407 21.8893 353.682 23.1493 353.682 24.764C353.682 26.3973 353.407 27.676 352.856 28.6C352.315 29.5147 351.377 29.972 350.042 29.972C348.707 29.972 347.765 29.5147 347.214 28.6C346.673 27.676 346.402 26.3973 346.402 24.764ZM352.114 24.764C352.114 24.008 352.063 23.3687 351.96 22.846C351.867 22.3233 351.671 21.8987 351.372 21.572C351.073 21.236 350.63 21.068 350.042 21.068C349.454 21.068 349.011 21.236 348.712 21.572C348.413 21.8987 348.213 22.3233 348.11 22.846C348.017 23.3687 347.97 24.008 347.97 24.764C347.97 25.548 348.017 26.206 348.11 26.738C348.203 27.27 348.399 27.6993 348.698 28.026C349.006 28.3527 349.454 28.516 350.042 28.516C350.63 28.516 351.073 28.3527 351.372 28.026C351.68 27.6993 351.881 27.27 351.974 26.738C352.067 26.206 352.114 25.548 352.114 24.764ZM355.371 24.764C355.371 23.1493 355.642 21.8893 356.183 20.984C356.734 20.0693 357.676 19.612 359.011 19.612C360.346 19.612 361.284 20.0693 361.825 20.984C362.376 21.8893 362.651 23.1493 362.651 24.764C362.651 26.3973 362.376 27.676 361.825 28.6C361.284 29.5147 360.346 29.972 359.011 29.972C357.676 29.972 356.734 29.5147 356.183 28.6C355.642 27.676 355.371 26.3973 355.371 24.764ZM361.083 24.764C361.083 24.008 361.032 23.3687 360.929 22.846C360.836 22.3233 360.64 21.8987 360.341 21.572C360.042 21.236 359.599 21.068 359.011 21.068C358.423 21.068 357.98 21.236 357.681 21.572C357.382 21.8987 357.182 22.3233 357.079 22.846C356.986 23.3687 356.939 24.008 356.939 24.764C356.939 25.548 356.986 26.206 357.079 26.738C357.172 27.27 357.368 27.6993 357.667 28.026C357.975 28.3527 358.423 28.516 359.011 28.516C359.599 28.516 360.042 28.3527 360.341 28.026C360.649 27.6993 360.85 27.27 360.943 26.738C361.036 26.206 361.083 25.548 361.083 24.764Z" fill="#FF0000"/>
<path d="M261.568 18.75H249.582C248.363 18.75 247.374 19.7294 247.374 20.9375V29.0625C247.374 30.2706 248.363 31.25 249.582 31.25H261.568C262.787 31.25 263.776 30.2706 263.776 29.0625V20.9375C263.776 19.7294 262.787 18.75 261.568 18.75Z" stroke="black" stroke-width="1.5" stroke-linecap="round" stroke-linejoin="round"/>
<path d="M247.374 22.5H263.776M250.528 26.7187H252.421V27.5H250.528V26.7187Z" stroke="black" stroke-width="2.8125" stroke-linejoin="round"/>
</svg>
