<svg width="31" height="32" viewBox="0 0 31 32" fill="none" xmlns="http://www.w3.org/2000/svg">
<path id="Vector" d="M23.1159 22.36V29.4389C23.1159 30.3007 22.4166 31 21.5548 31H2.56106C1.69928 31 1 30.302 1 29.4389V9.94041C1 9.16727 1.30655 8.42613 1.85317 7.88075L8.2784 1.45675C8.57141 1.16374 8.96783 1 9.38148 1H21.5548C22.4166 1 23.1159 1.69805 23.1159 2.56106V6.97464M4.91251 8.73391H8.73514V4.91128M13.539 23.1196H5.28677M14.6347 18.3884H5.28677M17.0822 13.6584H5.28677M29.2666 10.2174L19.9482 21.4046L16.2154 23.239L17.3444 19.2354L26.6628 8.04818C27.2623 7.3292 28.3297 7.23194 29.0487 7.83027C29.7676 8.42983 29.8649 9.49721 29.2666 10.2162V10.2174Z" stroke="#00661F" stroke-width="2" stroke-linecap="round" stroke-linejoin="round"/>
</svg>
