<svg width="24" height="24" viewBox="0 0 24 24" fill="none" xmlns="http://www.w3.org/2000/svg">
<path d="M7.44576 16.5548L4.82276 15.1308L5.41176 14.5418L7.73776 14.8918L11.8878 10.7418L4.53076 6.76178L5.27676 5.99578L14.3268 8.29178L17.2698 5.34078C17.4631 5.14745 17.6924 5.05078 17.9578 5.05078C18.2224 5.05078 18.4514 5.14745 18.6448 5.34078C18.8381 5.53411 18.9348 5.76678 18.9348 6.03878C18.9348 6.30945 18.8381 6.54178 18.6448 6.73578L15.7248 9.69278L18.0028 18.7238L17.2568 19.4888L13.2568 12.1318L9.14476 16.2428L9.47476 18.5888L8.86776 19.1968L7.44576 16.5548Z" fill="#0141EB"/>
</svg>
