<svg width="289" height="182" viewBox="0 0 289 182" fill="none" xmlns="http://www.w3.org/2000/svg">
<g filter="url(#filter0_dd_497_5368)">
<rect x="14.1123" y="14.3945" width="260.776" height="153.211" rx="9" fill="#C0FFD0" shape-rendering="crispEdges"/>
<g clip-path="url(#clip0_497_5368)">
<path d="M55.9711 43.5566C55.9426 45.8059 57.9756 47.0609 59.507 47.8072C61.0805 48.5729 61.609 49.0639 61.6027 49.7486C61.591 50.7965 60.3477 51.259 59.1842 51.277C57.1543 51.3084 55.974 50.7289 55.0357 50.2906L54.3045 53.7123C55.2459 54.1461 56.9891 54.5244 58.7967 54.541C63.0398 54.541 65.8158 52.4465 65.8309 49.199C65.8475 45.0775 60.1301 44.8494 60.1691 43.0072C60.1826 42.4486 60.7156 41.8525 61.8836 41.701C62.4617 41.6244 64.0576 41.5658 65.867 42.399L66.5771 39.0885C65.6041 38.7342 64.3535 38.3949 62.7965 38.3949C58.8027 38.3949 55.9938 40.518 55.9711 43.5566ZM73.401 38.6801C72.6262 38.6801 71.9732 39.132 71.6818 39.8256L65.6207 54.2979H69.8607L70.7045 51.966H75.8857L76.3752 54.2979H80.1123L76.8512 38.6801H73.401ZM73.9941 42.899L75.2178 48.7637H71.8666L73.9941 42.899ZM50.8303 38.6803L47.4881 54.2977H51.5285L54.8691 38.6799H50.8303V38.6803ZM44.8531 38.6799L40.6477 49.3102L38.9465 40.2717C38.7469 39.2627 37.9586 38.6801 37.0832 38.6801H30.2086L30.1123 39.1336C31.5236 39.4398 33.1271 39.9338 34.0986 40.4623C34.6932 40.7852 34.8627 41.0674 35.058 41.8346L38.2801 54.2979H42.5498L49.0959 38.6801H44.8531" fill="#404944"/>
</g>
<path d="M30.9941 71.7656L32.3682 69.8789L30.3037 69.2637L30.625 68.2383L32.6895 68.9971L32.6279 66.6455H33.667L33.5986 69.0381L35.6357 68.2793L35.9502 69.3252L33.8516 69.9473L35.1982 71.7998L34.3506 72.4355L33.0859 70.4668L31.8486 72.3877L30.9941 71.7656ZM37.2734 71.7656L38.6475 69.8789L36.583 69.2637L36.9043 68.2383L38.9688 68.9971L38.9072 66.6455H39.9463L39.8779 69.0381L41.915 68.2793L42.2295 69.3252L40.1309 69.9473L41.4775 71.7998L40.6299 72.4355L39.3652 70.4668L38.1279 72.3877L37.2734 71.7656ZM43.5527 71.7656L44.9268 69.8789L42.8623 69.2637L43.1836 68.2383L45.248 68.9971L45.1865 66.6455H46.2256L46.1572 69.0381L48.1943 68.2793L48.5088 69.3252L46.4102 69.9473L47.7568 71.7998L46.9092 72.4355L45.6445 70.4668L44.4072 72.3877L43.5527 71.7656ZM57.2773 71.7656L58.6514 69.8789L56.5869 69.2637L56.9082 68.2383L58.9727 68.9971L58.9111 66.6455H59.9502L59.8818 69.0381L61.9189 68.2793L62.2334 69.3252L60.1348 69.9473L61.4814 71.7998L60.6338 72.4355L59.3691 70.4668L58.1318 72.3877L57.2773 71.7656ZM63.5566 71.7656L64.9307 69.8789L62.8662 69.2637L63.1875 68.2383L65.252 68.9971L65.1904 66.6455H66.2295L66.1611 69.0381L68.1982 68.2793L68.5127 69.3252L66.4141 69.9473L67.7607 71.7998L66.9131 72.4355L65.6484 70.4668L64.4111 72.3877L63.5566 71.7656ZM69.8359 71.7656L71.21 69.8789L69.1455 69.2637L69.4668 68.2383L71.5312 68.9971L71.4697 66.6455H72.5088L72.4404 69.0381L74.4775 68.2793L74.792 69.3252L72.6934 69.9473L74.04 71.7998L73.1924 72.4355L71.9277 70.4668L70.6904 72.3877L69.8359 71.7656ZM83.5605 71.7656L84.9346 69.8789L82.8701 69.2637L83.1914 68.2383L85.2559 68.9971L85.1943 66.6455H86.2334L86.165 69.0381L88.2021 68.2793L88.5166 69.3252L86.418 69.9473L87.7646 71.7998L86.917 72.4355L85.6523 70.4668L84.415 72.3877L83.5605 71.7656ZM89.8398 71.7656L91.2139 69.8789L89.1494 69.2637L89.4707 68.2383L91.5352 68.9971L91.4736 66.6455H92.5127L92.4443 69.0381L94.4814 68.2793L94.7959 69.3252L92.6973 69.9473L94.0439 71.7998L93.1963 72.4355L91.9316 70.4668L90.6943 72.3877L89.8398 71.7656ZM96.1191 71.7656L97.4932 69.8789L95.4287 69.2637L95.75 68.2383L97.8145 68.9971L97.7529 66.6455H98.792L98.7236 69.0381L100.761 68.2793L101.075 69.3252L98.9766 69.9473L100.323 71.7998L99.4756 72.4355L98.2109 70.4668L96.9736 72.3877L96.1191 71.7656ZM116.516 73.2559V74.2949H109.324V73.5498L113.781 66.6523H114.813L113.706 68.6484L110.76 73.2559H116.516ZM115.128 66.6523V76.6055H113.863V66.6523H115.128ZM122.768 66.6387H122.877V67.7119H122.768C122.098 67.7119 121.537 67.8213 121.086 68.04C120.635 68.2542 120.277 68.5436 120.013 68.9082C119.748 69.2682 119.557 69.6738 119.438 70.125C119.325 70.5762 119.268 71.0342 119.268 71.499V72.9619C119.268 73.404 119.32 73.7959 119.425 74.1377C119.53 74.4749 119.673 74.7598 119.855 74.9922C120.038 75.2246 120.243 75.4001 120.471 75.5186C120.703 75.637 120.945 75.6963 121.195 75.6963C121.487 75.6963 121.747 75.6416 121.975 75.5322C122.202 75.4183 122.394 75.2611 122.549 75.0605C122.708 74.8555 122.829 74.6139 122.911 74.3359C122.993 74.0579 123.034 73.7526 123.034 73.4199C123.034 73.1237 122.998 72.8389 122.925 72.5654C122.852 72.2874 122.74 72.0413 122.59 71.8271C122.439 71.6084 122.25 71.4375 122.022 71.3145C121.799 71.1868 121.533 71.123 121.223 71.123C120.872 71.123 120.544 71.2096 120.238 71.3828C119.938 71.5514 119.689 71.7747 119.493 72.0527C119.302 72.3262 119.192 72.6247 119.165 72.9482L118.495 72.9414C118.559 72.431 118.677 71.9958 118.851 71.6357C119.028 71.2712 119.247 70.9749 119.507 70.7471C119.771 70.5146 120.065 70.346 120.389 70.2412C120.717 70.1318 121.063 70.0771 121.428 70.0771C121.924 70.0771 122.353 70.1706 122.713 70.3574C123.073 70.5443 123.369 70.7949 123.602 71.1094C123.834 71.4193 124.005 71.7702 124.114 72.1621C124.228 72.5495 124.285 72.9482 124.285 73.3584C124.285 73.8278 124.219 74.2676 124.087 74.6777C123.955 75.0879 123.757 75.4479 123.492 75.7578C123.232 76.0677 122.911 76.3092 122.528 76.4824C122.146 76.6556 121.701 76.7422 121.195 76.7422C120.658 76.7422 120.188 76.6328 119.787 76.4141C119.386 76.1908 119.053 75.8945 118.789 75.5254C118.525 75.1562 118.326 74.7461 118.194 74.2949C118.062 73.8438 117.996 73.3857 117.996 72.9209V72.3262C117.996 71.6243 118.067 70.9362 118.208 70.2617C118.349 69.5872 118.593 68.9766 118.939 68.4297C119.29 67.8828 119.776 67.4476 120.396 67.124C121.015 66.8005 121.806 66.6387 122.768 66.6387ZM132.561 75.5664V76.6055H126.046V75.6963L129.307 72.0664C129.708 71.6198 130.018 71.2415 130.236 70.9316C130.46 70.6172 130.615 70.3369 130.701 70.0908C130.792 69.8402 130.838 69.585 130.838 69.3252C130.838 68.9971 130.77 68.7008 130.633 68.4365C130.501 68.1676 130.305 67.9535 130.045 67.7939C129.785 67.6344 129.471 67.5547 129.102 67.5547C128.66 67.5547 128.29 67.6413 127.994 67.8145C127.702 67.9831 127.484 68.2201 127.338 68.5254C127.192 68.8307 127.119 69.1816 127.119 69.5781H125.854C125.854 69.0176 125.978 68.5049 126.224 68.04C126.47 67.5752 126.834 67.2061 127.317 66.9326C127.8 66.6546 128.395 66.5156 129.102 66.5156C129.73 66.5156 130.268 66.6273 130.715 66.8506C131.161 67.0693 131.503 67.3792 131.74 67.7803C131.982 68.1768 132.103 68.6416 132.103 69.1748C132.103 69.4665 132.052 69.7627 131.952 70.0635C131.856 70.3597 131.722 70.6559 131.549 70.9521C131.38 71.2484 131.182 71.54 130.954 71.8271C130.731 72.1143 130.492 72.3968 130.236 72.6748L127.57 75.5664H132.561ZM135.764 71.8682L134.752 71.6084L135.251 66.6523H140.357V67.8213H136.324L136.023 70.5283C136.206 70.4235 136.436 70.3255 136.714 70.2344C136.996 70.1432 137.32 70.0977 137.685 70.0977C138.145 70.0977 138.557 70.1774 138.922 70.3369C139.286 70.4919 139.596 70.7152 139.852 71.0068C140.111 71.2985 140.31 71.6494 140.446 72.0596C140.583 72.4697 140.651 72.9277 140.651 73.4336C140.651 73.9121 140.585 74.3519 140.453 74.7529C140.326 75.154 140.132 75.5049 139.872 75.8057C139.612 76.1019 139.284 76.332 138.888 76.4961C138.496 76.6602 138.033 76.7422 137.5 76.7422C137.099 76.7422 136.718 76.6875 136.358 76.5781C136.003 76.4642 135.684 76.2933 135.401 76.0654C135.123 75.833 134.896 75.5459 134.718 75.2041C134.545 74.8577 134.435 74.4521 134.39 73.9873H135.593C135.647 74.361 135.757 74.6755 135.921 74.9307C136.085 75.1859 136.299 75.3796 136.563 75.5117C136.832 75.6393 137.145 75.7031 137.5 75.7031C137.801 75.7031 138.067 75.6507 138.3 75.5459C138.532 75.4411 138.728 75.2907 138.888 75.0947C139.047 74.8988 139.168 74.6618 139.25 74.3838C139.337 74.1058 139.38 73.7936 139.38 73.4473C139.38 73.1328 139.337 72.8411 139.25 72.5723C139.163 72.3034 139.034 72.0687 138.86 71.8682C138.692 71.6676 138.484 71.5127 138.238 71.4033C137.992 71.2894 137.71 71.2324 137.391 71.2324C136.967 71.2324 136.646 71.2894 136.427 71.4033C136.213 71.5173 135.992 71.6722 135.764 71.8682Z" fill="#6750A4"/>
<path d="M37.1641 100.229H38.4766C38.4082 100.858 38.2282 101.421 37.9365 101.918C37.6449 102.415 37.2324 102.809 36.6992 103.101C36.166 103.388 35.5007 103.531 34.7031 103.531C34.1198 103.531 33.5889 103.422 33.1104 103.203C32.6364 102.984 32.2285 102.674 31.8867 102.273C31.5449 101.868 31.2806 101.382 31.0938 100.817C30.9115 100.248 30.8203 99.6143 30.8203 98.917V97.9258C30.8203 97.2285 30.9115 96.5973 31.0938 96.0322C31.2806 95.4626 31.5472 94.9749 31.8936 94.5693C32.2445 94.1637 32.666 93.8516 33.1582 93.6328C33.6504 93.4141 34.2041 93.3047 34.8193 93.3047C35.5713 93.3047 36.207 93.446 36.7266 93.7285C37.2461 94.0111 37.6494 94.403 37.9365 94.9043C38.2282 95.401 38.4082 95.9775 38.4766 96.6338H37.1641C37.1003 96.1689 36.9818 95.7702 36.8086 95.4375C36.6354 95.1003 36.3893 94.8405 36.0703 94.6582C35.7513 94.4759 35.3343 94.3848 34.8193 94.3848C34.3773 94.3848 33.9876 94.4691 33.6504 94.6377C33.3177 94.8063 33.0374 95.0456 32.8096 95.3555C32.5863 95.6654 32.4176 96.0368 32.3037 96.4697C32.1898 96.9027 32.1328 97.3835 32.1328 97.9121V98.917C32.1328 99.4046 32.1829 99.8626 32.2832 100.291C32.388 100.719 32.5452 101.095 32.7549 101.419C32.9645 101.743 33.2311 101.998 33.5547 102.185C33.8783 102.367 34.2611 102.458 34.7031 102.458C35.2637 102.458 35.7103 102.369 36.043 102.191C36.3757 102.014 36.6263 101.758 36.7949 101.426C36.9681 101.093 37.0911 100.694 37.1641 100.229ZM44.8584 101.686V95.998H46.1299V103.395H44.9199L44.8584 101.686ZM45.0977 100.127L45.624 100.113C45.624 100.605 45.5716 101.061 45.4668 101.48C45.3665 101.895 45.2025 102.255 44.9746 102.561C44.7467 102.866 44.4482 103.105 44.0791 103.278C43.71 103.447 43.2611 103.531 42.7324 103.531C42.3724 103.531 42.042 103.479 41.7412 103.374C41.445 103.269 41.1898 103.107 40.9756 102.889C40.7614 102.67 40.5951 102.385 40.4766 102.034C40.3626 101.683 40.3057 101.262 40.3057 100.77V95.998H41.5703V100.783C41.5703 101.116 41.6068 101.392 41.6797 101.61C41.7572 101.825 41.8597 101.995 41.9873 102.123C42.1195 102.246 42.2653 102.333 42.4248 102.383C42.5889 102.433 42.7575 102.458 42.9307 102.458C43.4684 102.458 43.8945 102.355 44.209 102.15C44.5234 101.941 44.749 101.66 44.8857 101.31C45.027 100.954 45.0977 100.56 45.0977 100.127ZM49.5723 97.1602V103.395H48.3076V95.998H49.5381L49.5723 97.1602ZM51.8828 95.957L51.876 97.1328C51.7712 97.11 51.6709 97.0964 51.5752 97.0918C51.484 97.0827 51.3792 97.0781 51.2607 97.0781C50.9691 97.0781 50.7116 97.1237 50.4883 97.2148C50.265 97.306 50.0758 97.4336 49.9209 97.5977C49.766 97.7617 49.6429 97.9577 49.5518 98.1855C49.4652 98.4089 49.4082 98.6549 49.3809 98.9238L49.0254 99.1289C49.0254 98.6823 49.0687 98.263 49.1553 97.8711C49.2464 97.4792 49.3854 97.1328 49.5723 96.832C49.7591 96.5267 49.9961 96.2897 50.2832 96.1211C50.5749 95.9479 50.9212 95.8613 51.3223 95.8613C51.4134 95.8613 51.5182 95.8727 51.6367 95.8955C51.7552 95.9137 51.8372 95.9342 51.8828 95.957ZM54.5664 97.1602V103.395H53.3018V95.998H54.5322L54.5664 97.1602ZM56.877 95.957L56.8701 97.1328C56.7653 97.11 56.665 97.0964 56.5693 97.0918C56.4782 97.0827 56.3734 97.0781 56.2549 97.0781C55.9632 97.0781 55.7057 97.1237 55.4824 97.2148C55.2591 97.306 55.07 97.4336 54.915 97.5977C54.7601 97.7617 54.637 97.9577 54.5459 98.1855C54.4593 98.4089 54.4023 98.6549 54.375 98.9238L54.0195 99.1289C54.0195 98.6823 54.0628 98.263 54.1494 97.8711C54.2406 97.4792 54.3796 97.1328 54.5664 96.832C54.7533 96.5267 54.9902 96.2897 55.2773 96.1211C55.569 95.9479 55.9154 95.8613 56.3164 95.8613C56.4076 95.8613 56.5124 95.8727 56.6309 95.8955C56.7493 95.9137 56.8314 95.9342 56.877 95.957ZM61.2285 103.531C60.7135 103.531 60.2464 103.445 59.8271 103.271C59.4124 103.094 59.0547 102.845 58.7539 102.526C58.4577 102.207 58.2298 101.829 58.0703 101.392C57.9108 100.954 57.8311 100.476 57.8311 99.9561V99.6689C57.8311 99.0674 57.9199 98.5319 58.0977 98.0625C58.2754 97.5885 58.5169 97.1875 58.8223 96.8594C59.1276 96.5312 59.474 96.2829 59.8613 96.1143C60.2487 95.9456 60.6497 95.8613 61.0645 95.8613C61.5931 95.8613 62.0488 95.9525 62.4316 96.1348C62.819 96.3171 63.1357 96.5723 63.3818 96.9004C63.6279 97.224 63.8102 97.6068 63.9287 98.0488C64.0472 98.4863 64.1064 98.9648 64.1064 99.4844V100.052H58.583V99.0195H62.8418V98.9238C62.8236 98.5957 62.7552 98.2767 62.6367 97.9668C62.5228 97.6569 62.3405 97.4017 62.0898 97.2012C61.8392 97.0007 61.4974 96.9004 61.0645 96.9004C60.7773 96.9004 60.513 96.9619 60.2715 97.085C60.0299 97.2035 59.8226 97.3812 59.6494 97.6182C59.4762 97.8551 59.3418 98.1445 59.2461 98.4863C59.1504 98.8281 59.1025 99.2223 59.1025 99.6689V99.9561C59.1025 100.307 59.1504 100.637 59.2461 100.947C59.3464 101.253 59.4899 101.521 59.6768 101.754C59.8682 101.986 60.0983 102.169 60.3672 102.301C60.6406 102.433 60.9505 102.499 61.2969 102.499C61.7435 102.499 62.1217 102.408 62.4316 102.226C62.7415 102.043 63.0127 101.799 63.2451 101.494L64.0107 102.103C63.8512 102.344 63.6484 102.574 63.4023 102.793C63.1562 103.012 62.8532 103.189 62.4932 103.326C62.1377 103.463 61.7161 103.531 61.2285 103.531ZM67.0977 97.5771V103.395H65.833V95.998H67.0293L67.0977 97.5771ZM66.7969 99.416L66.2705 99.3955C66.2751 98.8896 66.3503 98.4225 66.4961 97.9941C66.6419 97.5612 66.847 97.1852 67.1113 96.8662C67.3757 96.5472 67.6901 96.3011 68.0547 96.1279C68.4238 95.9502 68.8317 95.8613 69.2783 95.8613C69.6429 95.8613 69.971 95.9115 70.2627 96.0117C70.5544 96.1074 70.8027 96.2624 71.0078 96.4766C71.2174 96.6908 71.377 96.9688 71.4863 97.3105C71.5957 97.6478 71.6504 98.0602 71.6504 98.5479V103.395H70.3789V98.5342C70.3789 98.1468 70.3219 97.8369 70.208 97.6045C70.0941 97.3675 69.9277 97.1966 69.709 97.0918C69.4902 96.9824 69.2214 96.9277 68.9023 96.9277C68.5879 96.9277 68.3008 96.9938 68.041 97.126C67.7858 97.2581 67.5648 97.4404 67.3779 97.6729C67.1956 97.9053 67.0521 98.1719 66.9473 98.4727C66.847 98.7689 66.7969 99.0833 66.7969 99.416ZM76.918 95.998V96.9688H72.9189V95.998H76.918ZM74.2725 94.2002H75.5371V101.562C75.5371 101.813 75.5758 102.002 75.6533 102.13C75.7308 102.257 75.8311 102.342 75.9541 102.383C76.0771 102.424 76.2093 102.444 76.3506 102.444C76.4554 102.444 76.5648 102.435 76.6787 102.417C76.7972 102.394 76.8861 102.376 76.9453 102.362L76.9521 103.395C76.8519 103.426 76.7197 103.456 76.5557 103.483C76.3962 103.515 76.2025 103.531 75.9746 103.531C75.6647 103.531 75.3799 103.47 75.1201 103.347C74.8604 103.224 74.653 103.019 74.498 102.731C74.3477 102.44 74.2725 102.048 74.2725 101.556V94.2002ZM82.3672 92.8945H83.6387V101.959L83.5293 103.395H82.3672V92.8945ZM88.6357 99.6348V99.7783C88.6357 100.316 88.5719 100.815 88.4443 101.275C88.3167 101.731 88.1299 102.128 87.8838 102.465C87.6377 102.802 87.3369 103.064 86.9814 103.251C86.626 103.438 86.2181 103.531 85.7578 103.531C85.2884 103.531 84.876 103.451 84.5205 103.292C84.1696 103.128 83.8734 102.893 83.6318 102.588C83.3903 102.283 83.1966 101.913 83.0508 101.48C82.9095 101.048 82.8115 100.56 82.7568 100.018V99.3887C82.8115 98.8418 82.9095 98.3519 83.0508 97.9189C83.1966 97.486 83.3903 97.1169 83.6318 96.8115C83.8734 96.5016 84.1696 96.2669 84.5205 96.1074C84.8714 95.9434 85.2793 95.8613 85.7441 95.8613C86.209 95.8613 86.6214 95.9525 86.9814 96.1348C87.3415 96.3125 87.6423 96.5677 87.8838 96.9004C88.1299 97.2331 88.3167 97.6318 88.4443 98.0967C88.5719 98.557 88.6357 99.0697 88.6357 99.6348ZM87.3643 99.7783V99.6348C87.3643 99.2656 87.3301 98.9193 87.2617 98.5957C87.1934 98.2676 87.084 97.9805 86.9336 97.7344C86.7832 97.4837 86.585 97.2878 86.3389 97.1465C86.0928 97.0007 85.7897 96.9277 85.4297 96.9277C85.1107 96.9277 84.8327 96.9824 84.5957 97.0918C84.3633 97.2012 84.165 97.3493 84.001 97.5361C83.8369 97.7184 83.7025 97.9281 83.5977 98.165C83.4974 98.3975 83.4222 98.639 83.3721 98.8896V100.537C83.445 100.856 83.5635 101.164 83.7275 101.46C83.8962 101.752 84.1195 101.991 84.3975 102.178C84.68 102.365 85.0286 102.458 85.4434 102.458C85.7852 102.458 86.0768 102.39 86.3184 102.253C86.5645 102.112 86.7627 101.918 86.9131 101.672C87.068 101.426 87.182 101.141 87.2549 100.817C87.3278 100.494 87.3643 100.147 87.3643 99.7783ZM94.8467 102.13V98.3223C94.8467 98.0306 94.7874 97.7777 94.6689 97.5635C94.555 97.3447 94.3818 97.1761 94.1494 97.0576C93.917 96.9391 93.6299 96.8799 93.2881 96.8799C92.9691 96.8799 92.6888 96.9346 92.4473 97.0439C92.2103 97.1533 92.0234 97.2969 91.8867 97.4746C91.7546 97.6523 91.6885 97.8438 91.6885 98.0488H90.4238C90.4238 97.7845 90.4922 97.5225 90.6289 97.2627C90.7656 97.0029 90.9616 96.7682 91.2168 96.5586C91.4766 96.3444 91.7865 96.1758 92.1465 96.0527C92.5111 95.9251 92.9167 95.8613 93.3633 95.8613C93.901 95.8613 94.375 95.9525 94.7852 96.1348C95.1999 96.3171 95.5234 96.5928 95.7559 96.9619C95.9928 97.3265 96.1113 97.7845 96.1113 98.3359V101.781C96.1113 102.027 96.1318 102.289 96.1729 102.567C96.2184 102.845 96.2845 103.085 96.3711 103.285V103.395H95.0518C94.988 103.249 94.9378 103.055 94.9014 102.813C94.8649 102.567 94.8467 102.34 94.8467 102.13ZM95.0654 98.9102L95.0791 99.7988H93.8008C93.4408 99.7988 93.1195 99.8285 92.8369 99.8877C92.5544 99.9424 92.3174 100.027 92.126 100.141C91.9346 100.255 91.7887 100.398 91.6885 100.571C91.5882 100.74 91.5381 100.938 91.5381 101.166C91.5381 101.398 91.5905 101.61 91.6953 101.802C91.8001 101.993 91.9574 102.146 92.167 102.26C92.3812 102.369 92.6432 102.424 92.9531 102.424C93.3405 102.424 93.6823 102.342 93.9785 102.178C94.2747 102.014 94.5094 101.813 94.6826 101.576C94.8604 101.339 94.9561 101.109 94.9697 100.886L95.5098 101.494C95.4779 101.686 95.3913 101.897 95.25 102.13C95.1087 102.362 94.9196 102.586 94.6826 102.8C94.4502 103.009 94.1722 103.185 93.8486 103.326C93.5296 103.463 93.1696 103.531 92.7686 103.531C92.2673 103.531 91.8275 103.433 91.4492 103.237C91.0755 103.041 90.7839 102.779 90.5742 102.451C90.3691 102.118 90.2666 101.747 90.2666 101.337C90.2666 100.94 90.3441 100.592 90.499 100.291C90.654 99.9857 90.8773 99.7327 91.1689 99.5322C91.4606 99.3271 91.8115 99.1722 92.2217 99.0674C92.6318 98.9626 93.0898 98.9102 93.5957 98.9102H95.0654ZM99.7246 92.8945V103.395H98.4531V92.8945H99.7246ZM106.366 102.13V98.3223C106.366 98.0306 106.307 97.7777 106.188 97.5635C106.075 97.3447 105.901 97.1761 105.669 97.0576C105.437 96.9391 105.149 96.8799 104.808 96.8799C104.489 96.8799 104.208 96.9346 103.967 97.0439C103.73 97.1533 103.543 97.2969 103.406 97.4746C103.274 97.6523 103.208 97.8438 103.208 98.0488H101.943C101.943 97.7845 102.012 97.5225 102.148 97.2627C102.285 97.0029 102.481 96.7682 102.736 96.5586C102.996 96.3444 103.306 96.1758 103.666 96.0527C104.031 95.9251 104.436 95.8613 104.883 95.8613C105.421 95.8613 105.895 95.9525 106.305 96.1348C106.719 96.3171 107.043 96.5928 107.275 96.9619C107.512 97.3265 107.631 97.7845 107.631 98.3359V101.781C107.631 102.027 107.651 102.289 107.692 102.567C107.738 102.845 107.804 103.085 107.891 103.285V103.395H106.571C106.507 103.249 106.457 103.055 106.421 102.813C106.384 102.567 106.366 102.34 106.366 102.13ZM106.585 98.9102L106.599 99.7988H105.32C104.96 99.7988 104.639 99.8285 104.356 99.8877C104.074 99.9424 103.837 100.027 103.646 100.141C103.454 100.255 103.308 100.398 103.208 100.571C103.108 100.74 103.058 100.938 103.058 101.166C103.058 101.398 103.11 101.61 103.215 101.802C103.32 101.993 103.477 102.146 103.687 102.26C103.901 102.369 104.163 102.424 104.473 102.424C104.86 102.424 105.202 102.342 105.498 102.178C105.794 102.014 106.029 101.813 106.202 101.576C106.38 101.339 106.476 101.109 106.489 100.886L107.029 101.494C106.997 101.686 106.911 101.897 106.77 102.13C106.628 102.362 106.439 102.586 106.202 102.8C105.97 103.009 105.692 103.185 105.368 103.326C105.049 103.463 104.689 103.531 104.288 103.531C103.787 103.531 103.347 103.433 102.969 103.237C102.595 103.041 102.303 102.779 102.094 102.451C101.889 102.118 101.786 101.747 101.786 101.337C101.786 100.94 101.864 100.592 102.019 100.291C102.174 99.9857 102.397 99.7327 102.688 99.5322C102.98 99.3271 103.331 99.1722 103.741 99.0674C104.151 98.9626 104.609 98.9102 105.115 98.9102H106.585ZM111.135 97.5771V103.395H109.87V95.998H111.066L111.135 97.5771ZM110.834 99.416L110.308 99.3955C110.312 98.8896 110.387 98.4225 110.533 97.9941C110.679 97.5612 110.884 97.1852 111.148 96.8662C111.413 96.5472 111.727 96.3011 112.092 96.1279C112.461 95.9502 112.869 95.8613 113.315 95.8613C113.68 95.8613 114.008 95.9115 114.3 96.0117C114.591 96.1074 114.84 96.2624 115.045 96.4766C115.255 96.6908 115.414 96.9688 115.523 97.3105C115.633 97.6478 115.688 98.0602 115.688 98.5479V103.395H114.416V98.5342C114.416 98.1468 114.359 97.8369 114.245 97.6045C114.131 97.3675 113.965 97.1966 113.746 97.0918C113.527 96.9824 113.258 96.9277 112.939 96.9277C112.625 96.9277 112.338 96.9938 112.078 97.126C111.823 97.2581 111.602 97.4404 111.415 97.6729C111.233 97.9053 111.089 98.1719 110.984 98.4727C110.884 98.7689 110.834 99.0833 110.834 99.416ZM120.818 102.492C121.119 102.492 121.397 102.431 121.652 102.308C121.908 102.185 122.117 102.016 122.281 101.802C122.445 101.583 122.539 101.335 122.562 101.057H123.765C123.742 101.494 123.594 101.902 123.32 102.28C123.051 102.654 122.698 102.957 122.261 103.189C121.823 103.417 121.342 103.531 120.818 103.531C120.262 103.531 119.777 103.433 119.362 103.237C118.952 103.041 118.61 102.772 118.337 102.431C118.068 102.089 117.865 101.697 117.729 101.255C117.596 100.808 117.53 100.337 117.53 99.8398V99.5527C117.53 99.056 117.596 98.5866 117.729 98.1445C117.865 97.6979 118.068 97.3037 118.337 96.9619C118.61 96.6201 118.952 96.3512 119.362 96.1553C119.777 95.9593 120.262 95.8613 120.818 95.8613C121.397 95.8613 121.903 95.9798 122.336 96.2168C122.769 96.4492 123.108 96.7682 123.354 97.1738C123.605 97.5749 123.742 98.0306 123.765 98.541H122.562C122.539 98.2357 122.452 97.96 122.302 97.7139C122.156 97.4678 121.955 97.2718 121.7 97.126C121.45 96.9756 121.156 96.9004 120.818 96.9004C120.431 96.9004 120.105 96.9779 119.841 97.1328C119.581 97.2832 119.374 97.4883 119.219 97.748C119.068 98.0033 118.959 98.2881 118.891 98.6025C118.827 98.9124 118.795 99.2292 118.795 99.5527V99.8398C118.795 100.163 118.827 100.482 118.891 100.797C118.954 101.111 119.062 101.396 119.212 101.651C119.367 101.907 119.574 102.112 119.834 102.267C120.098 102.417 120.426 102.492 120.818 102.492ZM128.506 103.531C127.991 103.531 127.524 103.445 127.104 103.271C126.69 103.094 126.332 102.845 126.031 102.526C125.735 102.207 125.507 101.829 125.348 101.392C125.188 100.954 125.108 100.476 125.108 99.9561V99.6689C125.108 99.0674 125.197 98.5319 125.375 98.0625C125.553 97.5885 125.794 97.1875 126.1 96.8594C126.405 96.5312 126.751 96.2829 127.139 96.1143C127.526 95.9456 127.927 95.8613 128.342 95.8613C128.87 95.8613 129.326 95.9525 129.709 96.1348C130.096 96.3171 130.413 96.5723 130.659 96.9004C130.905 97.224 131.088 97.6068 131.206 98.0488C131.325 98.4863 131.384 98.9648 131.384 99.4844V100.052H125.86V99.0195H130.119V98.9238C130.101 98.5957 130.033 98.2767 129.914 97.9668C129.8 97.6569 129.618 97.4017 129.367 97.2012C129.117 97.0007 128.775 96.9004 128.342 96.9004C128.055 96.9004 127.79 96.9619 127.549 97.085C127.307 97.2035 127.1 97.3812 126.927 97.6182C126.754 97.8551 126.619 98.1445 126.523 98.4863C126.428 98.8281 126.38 99.2223 126.38 99.6689V99.9561C126.38 100.307 126.428 100.637 126.523 100.947C126.624 101.253 126.767 101.521 126.954 101.754C127.146 101.986 127.376 102.169 127.645 102.301C127.918 102.433 128.228 102.499 128.574 102.499C129.021 102.499 129.399 102.408 129.709 102.226C130.019 102.043 130.29 101.799 130.522 101.494L131.288 102.103C131.129 102.344 130.926 102.574 130.68 102.793C130.434 103.012 130.131 103.189 129.771 103.326C129.415 103.463 128.993 103.531 128.506 103.531ZM133.062 99.416V99.3477C133.062 98.3542 133.174 97.4564 133.397 96.6543C133.621 95.8477 133.906 95.1413 134.252 94.5352C134.598 93.929 134.963 93.4277 135.346 93.0312C135.729 92.6302 136.082 92.3408 136.405 92.1631L136.672 92.9971C136.403 93.2021 136.13 93.4847 135.852 93.8447C135.578 94.2048 135.325 94.6468 135.093 95.1709C134.865 95.695 134.68 96.3034 134.539 96.9961C134.398 97.6888 134.327 98.4681 134.327 99.334V99.4297C134.327 100.296 134.398 101.077 134.539 101.774C134.68 102.467 134.865 103.078 135.093 103.606C135.325 104.135 135.578 104.584 135.852 104.953C136.13 105.327 136.403 105.623 136.672 105.842L136.405 106.607C136.082 106.43 135.729 106.14 135.346 105.739C134.963 105.343 134.598 104.841 134.252 104.235C133.906 103.634 133.621 102.93 133.397 102.123C133.174 101.316 133.062 100.414 133.062 99.416ZM142.521 102.13V98.3223C142.521 98.0306 142.461 97.7777 142.343 97.5635C142.229 97.3447 142.056 97.1761 141.823 97.0576C141.591 96.9391 141.304 96.8799 140.962 96.8799C140.643 96.8799 140.363 96.9346 140.121 97.0439C139.884 97.1533 139.697 97.2969 139.561 97.4746C139.428 97.6523 139.362 97.8438 139.362 98.0488H138.098C138.098 97.7845 138.166 97.5225 138.303 97.2627C138.439 97.0029 138.635 96.7682 138.891 96.5586C139.15 96.3444 139.46 96.1758 139.82 96.0527C140.185 95.9251 140.59 95.8613 141.037 95.8613C141.575 95.8613 142.049 95.9525 142.459 96.1348C142.874 96.3171 143.197 96.5928 143.43 96.9619C143.667 97.3265 143.785 97.7845 143.785 98.3359V101.781C143.785 102.027 143.806 102.289 143.847 102.567C143.892 102.845 143.958 103.085 144.045 103.285V103.395H142.726C142.662 103.249 142.612 103.055 142.575 102.813C142.539 102.567 142.521 102.34 142.521 102.13ZM142.739 98.9102L142.753 99.7988H141.475C141.115 99.7988 140.793 99.8285 140.511 99.8877C140.228 99.9424 139.991 100.027 139.8 100.141C139.608 100.255 139.463 100.398 139.362 100.571C139.262 100.74 139.212 100.938 139.212 101.166C139.212 101.398 139.264 101.61 139.369 101.802C139.474 101.993 139.631 102.146 139.841 102.26C140.055 102.369 140.317 102.424 140.627 102.424C141.014 102.424 141.356 102.342 141.652 102.178C141.949 102.014 142.183 101.813 142.356 101.576C142.534 101.339 142.63 101.109 142.644 100.886L143.184 101.494C143.152 101.686 143.065 101.897 142.924 102.13C142.783 102.362 142.593 102.586 142.356 102.8C142.124 103.009 141.846 103.185 141.522 103.326C141.203 103.463 140.843 103.531 140.442 103.531C139.941 103.531 139.501 103.433 139.123 103.237C138.749 103.041 138.458 102.779 138.248 102.451C138.043 102.118 137.94 101.747 137.94 101.337C137.94 100.94 138.018 100.592 138.173 100.291C138.328 99.9857 138.551 99.7327 138.843 99.5322C139.134 99.3271 139.485 99.1722 139.896 99.0674C140.306 98.9626 140.764 98.9102 141.27 98.9102H142.739ZM150.331 101.433C150.331 101.25 150.29 101.082 150.208 100.927C150.131 100.767 149.969 100.624 149.723 100.496C149.481 100.364 149.117 100.25 148.629 100.154C148.219 100.068 147.847 99.9652 147.515 99.8467C147.187 99.7282 146.906 99.5846 146.674 99.416C146.446 99.2474 146.271 99.0492 146.147 98.8213C146.024 98.5934 145.963 98.3268 145.963 98.0215C145.963 97.7298 146.027 97.4541 146.154 97.1943C146.286 96.9346 146.471 96.7044 146.708 96.5039C146.95 96.3034 147.239 96.1462 147.576 96.0322C147.913 95.9183 148.289 95.8613 148.704 95.8613C149.297 95.8613 149.802 95.9661 150.222 96.1758C150.641 96.3854 150.962 96.6657 151.186 97.0166C151.409 97.363 151.521 97.748 151.521 98.1719H150.256C150.256 97.9668 150.194 97.7686 150.071 97.5771C149.953 97.3812 149.777 97.2194 149.545 97.0918C149.317 96.9642 149.037 96.9004 148.704 96.9004C148.353 96.9004 148.068 96.9551 147.85 97.0645C147.635 97.1693 147.478 97.3037 147.378 97.4678C147.282 97.6318 147.234 97.805 147.234 97.9873C147.234 98.124 147.257 98.2471 147.303 98.3564C147.353 98.4613 147.439 98.5592 147.562 98.6504C147.686 98.737 147.859 98.819 148.082 98.8965C148.305 98.974 148.59 99.0514 148.937 99.1289C149.543 99.2656 150.042 99.4297 150.434 99.6211C150.826 99.8125 151.117 100.047 151.309 100.325C151.5 100.603 151.596 100.94 151.596 101.337C151.596 101.66 151.527 101.957 151.391 102.226C151.258 102.494 151.065 102.727 150.81 102.923C150.559 103.114 150.258 103.265 149.907 103.374C149.561 103.479 149.171 103.531 148.738 103.531C148.087 103.531 147.535 103.415 147.084 103.183C146.633 102.95 146.291 102.649 146.059 102.28C145.826 101.911 145.71 101.521 145.71 101.111H146.981C147 101.458 147.1 101.733 147.282 101.938C147.465 102.139 147.688 102.283 147.952 102.369C148.216 102.451 148.479 102.492 148.738 102.492C149.085 102.492 149.374 102.447 149.606 102.355C149.843 102.264 150.023 102.139 150.146 101.979C150.27 101.82 150.331 101.638 150.331 101.433ZM156.895 99.7783V99.6211C156.895 99.0879 156.972 98.5934 157.127 98.1377C157.282 97.6774 157.505 97.2786 157.797 96.9414C158.089 96.5996 158.442 96.3353 158.856 96.1484C159.271 95.957 159.736 95.8613 160.251 95.8613C160.771 95.8613 161.238 95.957 161.652 96.1484C162.072 96.3353 162.427 96.5996 162.719 96.9414C163.015 97.2786 163.241 97.6774 163.396 98.1377C163.55 98.5934 163.628 99.0879 163.628 99.6211V99.7783C163.628 100.312 163.55 100.806 163.396 101.262C163.241 101.717 163.015 102.116 162.719 102.458C162.427 102.795 162.074 103.06 161.659 103.251C161.249 103.438 160.784 103.531 160.265 103.531C159.745 103.531 159.278 103.438 158.863 103.251C158.449 103.06 158.093 102.795 157.797 102.458C157.505 102.116 157.282 101.717 157.127 101.262C156.972 100.806 156.895 100.312 156.895 99.7783ZM158.159 99.6211V99.7783C158.159 100.147 158.202 100.496 158.289 100.824C158.376 101.148 158.506 101.435 158.679 101.686C158.856 101.936 159.077 102.134 159.342 102.28C159.606 102.422 159.914 102.492 160.265 102.492C160.611 102.492 160.914 102.422 161.174 102.28C161.438 102.134 161.657 101.936 161.83 101.686C162.003 101.435 162.133 101.148 162.22 100.824C162.311 100.496 162.356 100.147 162.356 99.7783V99.6211C162.356 99.2565 162.311 98.9124 162.22 98.5889C162.133 98.2607 162.001 97.9714 161.823 97.7207C161.65 97.4655 161.431 97.265 161.167 97.1191C160.907 96.9733 160.602 96.9004 160.251 96.9004C159.905 96.9004 159.599 96.9733 159.335 97.1191C159.075 97.265 158.856 97.4655 158.679 97.7207C158.506 97.9714 158.376 98.2607 158.289 98.5889C158.202 98.9124 158.159 99.2565 158.159 99.6211ZM167.351 103.395H166.086V95.2188C166.086 94.6855 166.182 94.2367 166.373 93.8721C166.569 93.5029 166.849 93.2249 167.214 93.0381C167.578 92.8467 168.011 92.751 168.513 92.751C168.659 92.751 168.804 92.7601 168.95 92.7783C169.101 92.7965 169.246 92.8239 169.388 92.8604L169.319 93.8926C169.224 93.8698 169.114 93.8538 168.991 93.8447C168.873 93.8356 168.754 93.8311 168.636 93.8311C168.367 93.8311 168.134 93.8857 167.938 93.9951C167.747 94.0999 167.601 94.2549 167.501 94.46C167.401 94.665 167.351 94.918 167.351 95.2188V103.395ZM168.923 95.998V96.9688H164.917V95.998H168.923ZM176.013 97.7959H176.915C177.357 97.7959 177.722 97.723 178.009 97.5771C178.3 97.4268 178.517 97.224 178.658 96.9688C178.804 96.709 178.877 96.4173 178.877 96.0938C178.877 95.7109 178.813 95.3896 178.686 95.1299C178.558 94.8701 178.367 94.6742 178.111 94.542C177.856 94.4098 177.533 94.3438 177.141 94.3438C176.785 94.3438 176.471 94.4144 176.197 94.5557C175.928 94.6924 175.716 94.8883 175.562 95.1436C175.411 95.3988 175.336 95.6995 175.336 96.0459H174.071C174.071 95.54 174.199 95.0798 174.454 94.665C174.709 94.2503 175.067 93.9199 175.527 93.6738C175.992 93.4277 176.53 93.3047 177.141 93.3047C177.742 93.3047 178.269 93.4118 178.72 93.626C179.171 93.8356 179.522 94.1501 179.772 94.5693C180.023 94.984 180.148 95.5013 180.148 96.1211C180.148 96.3717 180.089 96.6406 179.971 96.9277C179.857 97.2103 179.677 97.4746 179.431 97.7207C179.189 97.9668 178.875 98.1696 178.487 98.3291C178.1 98.484 177.635 98.5615 177.093 98.5615H176.013V97.7959ZM176.013 98.835V98.0762H177.093C177.726 98.0762 178.25 98.1514 178.665 98.3018C179.08 98.4521 179.406 98.6527 179.643 98.9033C179.884 99.154 180.053 99.4297 180.148 99.7305C180.249 100.027 180.299 100.323 180.299 100.619C180.299 101.084 180.219 101.496 180.06 101.856C179.905 102.216 179.684 102.522 179.396 102.772C179.114 103.023 178.781 103.212 178.398 103.34C178.016 103.467 177.599 103.531 177.147 103.531C176.715 103.531 176.307 103.47 175.924 103.347C175.546 103.224 175.211 103.046 174.919 102.813C174.627 102.576 174.399 102.287 174.235 101.945C174.071 101.599 173.989 101.205 173.989 100.763H175.254C175.254 101.109 175.329 101.412 175.479 101.672C175.634 101.932 175.853 102.134 176.136 102.28C176.423 102.422 176.76 102.492 177.147 102.492C177.535 102.492 177.868 102.426 178.146 102.294C178.428 102.157 178.645 101.952 178.795 101.679C178.95 101.405 179.027 101.061 179.027 100.646C179.027 100.232 178.941 99.8923 178.768 99.6279C178.594 99.359 178.348 99.1608 178.029 99.0332C177.715 98.901 177.343 98.835 176.915 98.835H176.013ZM186.831 93.4414L182.682 104.249H181.595L185.751 93.4414H186.831ZM194.847 102.355V103.395H188.332V102.485L191.593 98.8555C191.994 98.4089 192.304 98.0306 192.522 97.7207C192.746 97.4062 192.901 97.126 192.987 96.8799C193.078 96.6292 193.124 96.374 193.124 96.1143C193.124 95.7861 193.056 95.4899 192.919 95.2256C192.787 94.9567 192.591 94.7425 192.331 94.583C192.071 94.4235 191.757 94.3438 191.388 94.3438C190.946 94.3438 190.576 94.4303 190.28 94.6035C189.989 94.7721 189.77 95.0091 189.624 95.3145C189.478 95.6198 189.405 95.9707 189.405 96.3672H188.141C188.141 95.8066 188.264 95.2939 188.51 94.8291C188.756 94.3643 189.12 93.9951 189.604 93.7217C190.087 93.4437 190.681 93.3047 191.388 93.3047C192.017 93.3047 192.554 93.4163 193.001 93.6396C193.448 93.8584 193.789 94.1683 194.026 94.5693C194.268 94.9658 194.389 95.4307 194.389 95.9639C194.389 96.2555 194.339 96.5518 194.238 96.8525C194.143 97.1488 194.008 97.445 193.835 97.7412C193.666 98.0374 193.468 98.3291 193.24 98.6162C193.017 98.9033 192.778 99.1859 192.522 99.4639L189.856 102.355H194.847ZM202.972 102.355V103.395H196.457V102.485L199.718 98.8555C200.119 98.4089 200.429 98.0306 200.647 97.7207C200.871 97.4062 201.026 97.126 201.112 96.8799C201.203 96.6292 201.249 96.374 201.249 96.1143C201.249 95.7861 201.181 95.4899 201.044 95.2256C200.912 94.9567 200.716 94.7425 200.456 94.583C200.196 94.4235 199.882 94.3438 199.513 94.3438C199.071 94.3438 198.701 94.4303 198.405 94.6035C198.114 94.7721 197.895 95.0091 197.749 95.3145C197.603 95.6198 197.53 95.9707 197.53 96.3672H196.266C196.266 95.8066 196.389 95.2939 196.635 94.8291C196.881 94.3643 197.245 93.9951 197.729 93.7217C198.212 93.4437 198.806 93.3047 199.513 93.3047C200.142 93.3047 200.679 93.4163 201.126 93.6396C201.573 93.8584 201.914 94.1683 202.151 94.5693C202.393 94.9658 202.514 95.4307 202.514 95.9639C202.514 96.2555 202.464 96.5518 202.363 96.8525C202.268 97.1488 202.133 97.445 201.96 97.7412C201.791 98.0374 201.593 98.3291 201.365 98.6162C201.142 98.9033 200.903 99.1859 200.647 99.4639L197.981 102.355H202.972ZM209.114 93.4414L204.965 104.249H203.878L208.034 93.4414H209.114ZM217.13 102.355V103.395H210.615V102.485L213.876 98.8555C214.277 98.4089 214.587 98.0306 214.806 97.7207C215.029 97.4062 215.184 97.126 215.271 96.8799C215.362 96.6292 215.407 96.374 215.407 96.1143C215.407 95.7861 215.339 95.4899 215.202 95.2256C215.07 94.9567 214.874 94.7425 214.614 94.583C214.354 94.4235 214.04 94.3438 213.671 94.3438C213.229 94.3438 212.86 94.4303 212.563 94.6035C212.272 94.7721 212.053 95.0091 211.907 95.3145C211.761 95.6198 211.688 95.9707 211.688 96.3672H210.424C210.424 95.8066 210.547 95.2939 210.793 94.8291C211.039 94.3643 211.404 93.9951 211.887 93.7217C212.37 93.4437 212.965 93.3047 213.671 93.3047C214.3 93.3047 214.838 93.4163 215.284 93.6396C215.731 93.8584 216.073 94.1683 216.31 94.5693C216.551 94.9658 216.672 95.4307 216.672 95.9639C216.672 96.2555 216.622 96.5518 216.521 96.8525C216.426 97.1488 216.291 97.445 216.118 97.7412C215.95 98.0374 215.751 98.3291 215.523 98.6162C215.3 98.9033 215.061 99.1859 214.806 99.4639L212.14 102.355H217.13ZM224.981 97.625V99.1426C224.981 99.9583 224.909 100.646 224.763 101.207C224.617 101.768 224.407 102.219 224.134 102.561C223.86 102.902 223.53 103.151 223.143 103.306C222.76 103.456 222.327 103.531 221.844 103.531C221.461 103.531 221.108 103.483 220.784 103.388C220.461 103.292 220.169 103.139 219.909 102.93C219.654 102.715 219.435 102.438 219.253 102.096C219.071 101.754 218.932 101.339 218.836 100.852C218.74 100.364 218.692 99.7943 218.692 99.1426V97.625C218.692 96.8092 218.765 96.1257 218.911 95.5742C219.062 95.0228 219.273 94.5807 219.547 94.248C219.82 93.9108 220.148 93.6693 220.531 93.5234C220.919 93.3776 221.352 93.3047 221.83 93.3047C222.217 93.3047 222.573 93.3525 222.896 93.4482C223.225 93.5394 223.516 93.6875 223.771 93.8926C224.027 94.0931 224.243 94.362 224.421 94.6992C224.603 95.0319 224.742 95.4398 224.838 95.9229C224.934 96.4059 224.981 96.9733 224.981 97.625ZM223.71 99.3477V97.4131C223.71 96.9665 223.683 96.5745 223.628 96.2373C223.578 95.8955 223.503 95.6038 223.402 95.3623C223.302 95.1208 223.174 94.9248 223.02 94.7744C222.869 94.624 222.694 94.5146 222.493 94.4463C222.297 94.3734 222.076 94.3369 221.83 94.3369C221.529 94.3369 221.263 94.3939 221.03 94.5078C220.798 94.6172 220.602 94.7926 220.442 95.0342C220.287 95.2757 220.169 95.5924 220.087 95.9844C220.005 96.3763 219.964 96.8525 219.964 97.4131V99.3477C219.964 99.7943 219.989 100.188 220.039 100.53C220.094 100.872 220.174 101.168 220.278 101.419C220.383 101.665 220.511 101.868 220.661 102.027C220.812 102.187 220.985 102.305 221.181 102.383C221.381 102.456 221.602 102.492 221.844 102.492C222.154 102.492 222.425 102.433 222.657 102.314C222.89 102.196 223.083 102.011 223.238 101.761C223.398 101.506 223.516 101.18 223.594 100.783C223.671 100.382 223.71 99.9036 223.71 99.3477ZM233.38 102.355V103.395H226.865V102.485L230.126 98.8555C230.527 98.4089 230.837 98.0306 231.056 97.7207C231.279 97.4062 231.434 97.126 231.521 96.8799C231.612 96.6292 231.657 96.374 231.657 96.1143C231.657 95.7861 231.589 95.4899 231.452 95.2256C231.32 94.9567 231.124 94.7425 230.864 94.583C230.604 94.4235 230.29 94.3438 229.921 94.3438C229.479 94.3438 229.11 94.4303 228.813 94.6035C228.522 94.7721 228.303 95.0091 228.157 95.3145C228.011 95.6198 227.938 95.9707 227.938 96.3672H226.674C226.674 95.8066 226.797 95.2939 227.043 94.8291C227.289 94.3643 227.654 93.9951 228.137 93.7217C228.62 93.4437 229.215 93.3047 229.921 93.3047C230.55 93.3047 231.088 93.4163 231.534 93.6396C231.981 93.8584 232.323 94.1683 232.56 94.5693C232.801 94.9658 232.922 95.4307 232.922 95.9639C232.922 96.2555 232.872 96.5518 232.771 96.8525C232.676 97.1488 232.541 97.445 232.368 97.7412C232.2 98.0374 232.001 98.3291 231.773 98.6162C231.55 98.9033 231.311 99.1859 231.056 99.4639L228.39 102.355H233.38ZM241.71 100.045V101.084H234.519V100.339L238.976 93.4414H240.008L238.9 95.4375L235.954 100.045H241.71ZM240.322 93.4414V103.395H239.058V93.4414H240.322ZM246.157 99.3477V99.416C246.157 100.414 246.046 101.316 245.822 102.123C245.599 102.93 245.314 103.634 244.968 104.235C244.621 104.841 244.257 105.343 243.874 105.739C243.491 106.14 243.138 106.43 242.814 106.607L242.548 105.842C242.817 105.637 243.088 105.35 243.361 104.98C243.635 104.616 243.888 104.165 244.12 103.627C244.353 103.094 244.539 102.479 244.681 101.781C244.822 101.079 244.893 100.296 244.893 99.4297V99.334C244.893 98.4681 244.817 97.6865 244.667 96.9893C244.517 96.2874 244.321 95.6699 244.079 95.1367C243.842 94.6035 243.587 94.1546 243.313 93.79C243.045 93.4209 242.789 93.1361 242.548 92.9355L242.814 92.1631C243.138 92.3408 243.491 92.6302 243.874 93.0312C244.257 93.4277 244.621 93.929 244.968 94.5352C245.314 95.1413 245.599 95.8477 245.822 96.6543C246.046 97.4564 246.157 98.3542 246.157 99.3477Z" fill="#6750A4"/>
<path d="M36.8408 120.111V123.031H35.3369V120.111H36.8408ZM36.6553 136.059V138.676H35.1611V136.059H36.6553ZM38.1299 132.904C38.1299 132.527 38.0518 132.198 37.8955 131.918C37.7458 131.632 37.4984 131.374 37.1533 131.146C36.8083 130.912 36.346 130.694 35.7666 130.492C34.9333 130.199 34.2041 129.87 33.5791 129.506C32.9606 129.135 32.4788 128.679 32.1338 128.139C31.7952 127.592 31.626 126.911 31.626 126.098C31.626 125.297 31.8083 124.604 32.1729 124.018C32.5439 123.432 33.0583 122.979 33.7158 122.66C34.3734 122.341 35.1416 122.182 36.0205 122.182C36.6976 122.182 37.3063 122.283 37.8467 122.484C38.3936 122.686 38.859 122.982 39.2432 123.373C39.6273 123.764 39.9202 124.245 40.1221 124.818C40.3304 125.385 40.4346 126.036 40.4346 126.771H38.0908C38.0908 126.355 38.042 125.984 37.9443 125.658C37.8532 125.326 37.7165 125.046 37.5342 124.818C37.3519 124.584 37.1305 124.405 36.8701 124.281C36.6162 124.158 36.3265 124.096 36.001 124.096C35.5387 124.096 35.1579 124.184 34.8584 124.359C34.5589 124.529 34.3376 124.763 34.1943 125.062C34.0576 125.362 33.9893 125.704 33.9893 126.088C33.9893 126.459 34.0609 126.785 34.2041 127.064C34.3473 127.344 34.5915 127.598 34.9365 127.826C35.2881 128.048 35.7699 128.272 36.3818 128.5C37.2217 128.799 37.9476 129.135 38.5596 129.506C39.1781 129.87 39.6533 130.323 39.9854 130.863C40.3239 131.397 40.4932 132.071 40.4932 132.885C40.4932 133.725 40.2979 134.438 39.9072 135.023C39.5231 135.609 38.9827 136.055 38.2861 136.361C37.596 136.661 36.792 136.811 35.874 136.811C35.2946 136.811 34.7184 136.736 34.1455 136.586C33.5791 136.43 33.0648 136.176 32.6025 135.824C32.1403 135.473 31.7725 135.007 31.499 134.428C31.2256 133.842 31.0889 133.126 31.0889 132.279H33.4521C33.4521 132.787 33.5205 133.21 33.6572 133.549C33.7939 133.887 33.9795 134.154 34.2139 134.35C34.4482 134.545 34.7087 134.685 34.9951 134.77C35.2881 134.854 35.5811 134.896 35.874 134.896C36.3623 134.896 36.7725 134.815 37.1045 134.652C37.443 134.483 37.6969 134.249 37.8662 133.949C38.042 133.643 38.1299 133.295 38.1299 132.904ZM50.0049 129.994L48.1299 129.535L48.9014 122.387H56.5674V124.379H50.8545L50.4639 127.865C50.6852 127.735 50.9912 127.608 51.3818 127.484C51.7725 127.354 52.2184 127.289 52.7197 127.289C53.3903 127.289 53.9893 127.4 54.5166 127.621C55.0505 127.836 55.5029 128.152 55.874 128.568C56.2451 128.979 56.5283 129.48 56.7236 130.072C56.9189 130.658 57.0166 131.319 57.0166 132.055C57.0166 132.712 56.9189 133.327 56.7236 133.9C56.5348 134.473 56.2484 134.978 55.8643 135.414C55.4801 135.85 54.9951 136.192 54.4092 136.439C53.8298 136.68 53.1429 136.801 52.3486 136.801C51.7562 136.801 51.1865 136.716 50.6396 136.547C50.0993 136.371 49.6143 136.114 49.1846 135.775C48.7549 135.43 48.4098 135.007 48.1494 134.506C47.889 133.998 47.7393 133.415 47.7002 132.758H50.0049C50.0635 133.22 50.1904 133.614 50.3857 133.939C50.5876 134.258 50.8545 134.503 51.1865 134.672C51.5186 134.841 51.9027 134.926 52.3389 134.926C52.736 134.926 53.0778 134.857 53.3643 134.721C53.6507 134.577 53.8883 134.376 54.0771 134.115C54.2725 133.848 54.4157 133.536 54.5068 133.178C54.6045 132.82 54.6533 132.423 54.6533 131.986C54.6533 131.57 54.598 131.189 54.4873 130.844C54.3831 130.499 54.2236 130.199 54.0088 129.945C53.8005 129.691 53.5368 129.496 53.2178 129.359C52.8988 129.216 52.5309 129.145 52.1143 129.145C51.5544 129.145 51.1247 129.226 50.8252 129.389C50.5322 129.551 50.2588 129.753 50.0049 129.994ZM61.3721 129.994L59.4971 129.535L60.2686 122.387H67.9346V124.379H62.2217L61.8311 127.865C62.0524 127.735 62.3584 127.608 62.749 127.484C63.1396 127.354 63.5856 127.289 64.0869 127.289C64.7575 127.289 65.3564 127.4 65.8838 127.621C66.4176 127.836 66.8701 128.152 67.2412 128.568C67.6123 128.979 67.8955 129.48 68.0908 130.072C68.2861 130.658 68.3838 131.319 68.3838 132.055C68.3838 132.712 68.2861 133.327 68.0908 133.9C67.902 134.473 67.6156 134.978 67.2314 135.414C66.8473 135.85 66.3623 136.192 65.7764 136.439C65.1969 136.68 64.5101 136.801 63.7158 136.801C63.1234 136.801 62.5537 136.716 62.0068 136.547C61.4665 136.371 60.9814 136.114 60.5518 135.775C60.1221 135.43 59.777 135.007 59.5166 134.506C59.2562 133.998 59.1064 133.415 59.0674 132.758H61.3721C61.4307 133.22 61.5576 133.614 61.7529 133.939C61.9548 134.258 62.2217 134.503 62.5537 134.672C62.8857 134.841 63.2699 134.926 63.7061 134.926C64.1032 134.926 64.445 134.857 64.7314 134.721C65.0179 134.577 65.2555 134.376 65.4443 134.115C65.6396 133.848 65.7829 133.536 65.874 133.178C65.9717 132.82 66.0205 132.423 66.0205 131.986C66.0205 131.57 65.9652 131.189 65.8545 130.844C65.7503 130.499 65.5908 130.199 65.376 129.945C65.1676 129.691 64.904 129.496 64.585 129.359C64.266 129.216 63.8981 129.145 63.4814 129.145C62.9215 129.145 62.4919 129.226 62.1924 129.389C61.8994 129.551 61.626 129.753 61.3721 129.994ZM76.6943 122.338V136.605H74.3408V125.131L70.8545 126.312V124.369L76.4111 122.338H76.6943ZM83.9795 134.34L83.9697 136.02C83.9697 136.684 83.8037 137.367 83.4717 138.07C83.1396 138.773 82.7002 139.353 82.1533 139.809L80.8936 139.076C81.0758 138.783 81.2419 138.487 81.3916 138.188C81.5413 137.888 81.6618 137.569 81.7529 137.23C81.8441 136.892 81.8896 136.518 81.8896 136.107V134.34H83.9795ZM88.5791 129.994L86.7041 129.535L87.4756 122.387H95.1416V124.379H89.4287L89.0381 127.865C89.2594 127.735 89.5654 127.608 89.9561 127.484C90.3467 127.354 90.7926 127.289 91.2939 127.289C91.9645 127.289 92.5635 127.4 93.0908 127.621C93.6247 127.836 94.0771 128.152 94.4482 128.568C94.8193 128.979 95.1025 129.48 95.2979 130.072C95.4932 130.658 95.5908 131.319 95.5908 132.055C95.5908 132.712 95.4932 133.327 95.2979 133.9C95.109 134.473 94.8226 134.978 94.4385 135.414C94.0544 135.85 93.5693 136.192 92.9834 136.439C92.404 136.68 91.7171 136.801 90.9229 136.801C90.3304 136.801 89.7607 136.716 89.2139 136.547C88.6735 136.371 88.1885 136.114 87.7588 135.775C87.3291 135.43 86.984 135.007 86.7236 134.506C86.4632 133.998 86.3135 133.415 86.2744 132.758H88.5791C88.6377 133.22 88.7646 133.614 88.96 133.939C89.1618 134.258 89.4287 134.503 89.7607 134.672C90.0928 134.841 90.4769 134.926 90.9131 134.926C91.3102 134.926 91.652 134.857 91.9385 134.721C92.2249 134.577 92.4626 134.376 92.6514 134.115C92.8467 133.848 92.9899 133.536 93.0811 133.178C93.1787 132.82 93.2275 132.423 93.2275 131.986C93.2275 131.57 93.1722 131.189 93.0615 130.844C92.9574 130.499 92.7979 130.199 92.583 129.945C92.3747 129.691 92.111 129.496 91.792 129.359C91.473 129.216 91.1051 129.145 90.6885 129.145C90.1286 129.145 89.6989 129.226 89.3994 129.389C89.1064 129.551 88.833 129.753 88.5791 129.994ZM106.743 128.305V130.629C106.743 131.742 106.632 132.693 106.411 133.48C106.196 134.262 105.884 134.896 105.474 135.385C105.063 135.873 104.572 136.231 103.999 136.459C103.433 136.687 102.798 136.801 102.095 136.801C101.535 136.801 101.014 136.729 100.532 136.586C100.057 136.443 99.6273 136.218 99.2432 135.912C98.859 135.606 98.5303 135.212 98.2568 134.73C97.9899 134.242 97.7816 133.66 97.6318 132.982C97.4886 132.305 97.417 131.521 97.417 130.629V128.305C97.417 127.185 97.5277 126.241 97.749 125.473C97.9704 124.698 98.2861 124.07 98.6963 123.588C99.1064 123.1 99.5947 122.745 100.161 122.523C100.734 122.302 101.372 122.191 102.075 122.191C102.642 122.191 103.162 122.263 103.638 122.406C104.119 122.543 104.549 122.761 104.927 123.061C105.311 123.36 105.636 123.751 105.903 124.232C106.177 124.708 106.385 125.284 106.528 125.961C106.672 126.632 106.743 127.413 106.743 128.305ZM104.39 130.961V127.953C104.39 127.387 104.357 126.889 104.292 126.459C104.227 126.023 104.129 125.655 103.999 125.355C103.875 125.049 103.719 124.802 103.53 124.613C103.341 124.418 103.127 124.278 102.886 124.193C102.645 124.102 102.375 124.057 102.075 124.057C101.711 124.057 101.385 124.128 101.099 124.271C100.812 124.408 100.571 124.63 100.376 124.936C100.181 125.242 100.031 125.645 99.9268 126.146C99.8291 126.641 99.7803 127.243 99.7803 127.953V130.961C99.7803 131.534 99.8128 132.038 99.8779 132.475C99.943 132.911 100.041 133.285 100.171 133.598C100.301 133.904 100.457 134.158 100.64 134.359C100.828 134.555 101.043 134.698 101.284 134.789C101.532 134.88 101.802 134.926 102.095 134.926C102.466 134.926 102.795 134.854 103.081 134.711C103.368 134.568 103.608 134.34 103.804 134.027C103.999 133.708 104.146 133.295 104.243 132.787C104.341 132.279 104.39 131.671 104.39 130.961Z" fill="#6750A4"/>
</g>
<defs>
<filter id="filter0_dd_497_5368" x="0.112305" y="0.394531" width="288.776" height="181.211" filterUnits="userSpaceOnUse" color-interpolation-filters="sRGB">
<feFlood flood-opacity="0" result="BackgroundImageFix"/>
<feColorMatrix in="SourceAlpha" type="matrix" values="0 0 0 0 0 0 0 0 0 0 0 0 0 0 0 0 0 0 127 0" result="hardAlpha"/>
<feMorphology radius="4" operator="dilate" in="SourceAlpha" result="effect1_dropShadow_497_5368"/>
<feOffset/>
<feGaussianBlur stdDeviation="5"/>
<feComposite in2="hardAlpha" operator="out"/>
<feColorMatrix type="matrix" values="0 0 0 0 0.556863 0 0 0 0 0.839216 0 0 0 0 0.698039 0 0 0 1 0"/>
<feBlend mode="normal" in2="BackgroundImageFix" result="effect1_dropShadow_497_5368"/>
<feColorMatrix in="SourceAlpha" type="matrix" values="0 0 0 0 0 0 0 0 0 0 0 0 0 0 0 0 0 0 127 0" result="hardAlpha"/>
<feOffset/>
<feGaussianBlur stdDeviation="1"/>
<feComposite in2="hardAlpha" operator="out"/>
<feColorMatrix type="matrix" values="0 0 0 0 0.214184 0 0 0 0 0.304167 0 0 0 0 0.254176 0 0 0 1 0"/>
<feBlend mode="normal" in2="effect1_dropShadow_497_5368" result="effect2_dropShadow_497_5368"/>
<feBlend mode="normal" in="SourceGraphic" in2="effect2_dropShadow_497_5368" result="shape"/>
</filter>
<clipPath id="clip0_497_5368">
<rect width="50" height="16.2109" fill="white" transform="translate(30.1123 38.3945)"/>
</clipPath>
</defs>
</svg>
