<svg width="18" height="18" viewBox="0 0 18 18" fill="none" xmlns="http://www.w3.org/2000/svg">
<path d="M10.8519 1.61841C10.8774 1.58607 10.9091 1.55911 10.9452 1.53909C10.9812 1.51906 11.0208 1.50635 11.0618 1.50171C11.1027 1.49706 11.1442 1.50056 11.1838 1.51201C11.2234 1.52345 11.2603 1.54262 11.2925 1.56841L11.9675 2.10966L9.49937 5.25091H11.0894L12.9444 2.89091L14.5094 4.14466C14.5422 4.17091 14.5693 4.20351 14.5892 4.2405C14.6091 4.27749 14.6214 4.31812 14.6252 4.35995C14.6291 4.40178 14.6245 4.44396 14.6116 4.48397C14.5988 4.52397 14.5781 4.56098 14.5506 4.59278L13.9831 5.25091H15.6169C15.8321 4.92575 15.9179 4.5319 15.8575 4.14669C15.7972 3.76149 15.595 3.41277 15.2906 3.16903L12.0737 0.592781C11.9131 0.464117 11.7285 0.368477 11.5307 0.311355C11.333 0.254234 11.1258 0.236758 10.9213 0.259931C10.7167 0.283105 10.5188 0.34647 10.3388 0.446387C10.1588 0.546305 10.0003 0.680804 9.8725 0.842156L6.38062 5.25091H7.975L10.8519 1.61841ZM12.125 10.8759C11.9592 10.8759 11.8003 10.9418 11.6831 11.059C11.5658 11.1762 11.5 11.3351 11.5 11.5009C11.5 11.6667 11.5658 11.8256 11.6831 11.9428C11.8003 12.0601 11.9592 12.1259 12.125 12.1259H14C14.1658 12.1259 14.3247 12.0601 14.4419 11.9428C14.5592 11.8256 14.625 11.6667 14.625 11.5009C14.625 11.3351 14.5592 11.1762 14.4419 11.059C14.3247 10.9418 14.1658 10.8759 14 10.8759H12.125ZM2.75 3.37591C2.25272 3.37591 1.77581 3.57345 1.42417 3.92508C1.07254 4.27671 0.875 4.75362 0.875 5.25091V14.3134C0.875 15.0593 1.17132 15.7747 1.69876 16.3021C2.22621 16.8296 2.94158 17.1259 3.6875 17.1259H14.3125C15.0584 17.1259 15.7738 16.8296 16.3012 16.3021C16.8287 15.7747 17.125 15.0593 17.125 14.3134V8.68841C17.125 7.94248 16.8287 7.22711 16.3012 6.69967C15.7738 6.17222 15.0584 5.87591 14.3125 5.87591H2.75C2.58424 5.87591 2.42527 5.81006 2.30806 5.69285C2.19085 5.57564 2.125 5.41667 2.125 5.25091C2.125 5.08515 2.19085 4.92617 2.30806 4.80896C2.42527 4.69175 2.58424 4.62591 2.75 4.62591H5.6125L6.61 3.37591H2.75ZM2.125 14.3134V7.01966C2.32062 7.08841 2.53125 7.12591 2.75 7.12591H14.3125C14.7269 7.12591 15.1243 7.29053 15.4174 7.58355C15.7104 7.87658 15.875 8.274 15.875 8.68841V14.3134C15.875 14.7278 15.7104 15.1252 15.4174 15.4183C15.1243 15.7113 14.7269 15.8759 14.3125 15.8759H3.6875C3.2731 15.8759 2.87567 15.7113 2.58265 15.4183C2.28962 15.1252 2.125 14.7278 2.125 14.3134Z" fill="black"/>
</svg>
